<svg width="20" height="20" viewBox="0 0 20 20" fill="none" xmlns="http://www.w3.org/2000/svg">
<path d="M18.3334 5.94971V14.283C18.3334 14.8356 18.1139 15.3655 17.7232 15.7562C17.3325 16.1469 16.8026 16.3664 16.25 16.3664H3.75002C3.19749 16.3664 2.66758 16.1469 2.27688 15.7562C1.88618 15.3655 1.66669 14.8356 1.66669 14.283V5.94971" stroke="#F8F8F2" stroke-width="1.4" stroke-linecap="round" stroke-linejoin="round"/>
<path d="M18.3334 5.94954C18.3334 5.39701 18.1139 4.86711 17.7232 4.47641C17.3325 4.0857 16.8026 3.86621 16.25 3.86621H3.75002C3.19749 3.86621 2.66758 4.0857 2.27688 4.47641C1.88618 4.86711 1.66669 5.39701 1.66669 5.94954L8.89585 10.4634C9.22696 10.6704 9.60956 10.7801 10 10.7801C10.3905 10.7801 10.7731 10.6704 11.1042 10.4634L18.3334 5.94954Z" stroke="#F8F8F2" stroke-width="1.4" stroke-linecap="round" stroke-linejoin="round"/>
</svg>
