<svg width="20" height="21" viewBox="0 0 20 21" fill="none" xmlns="http://www.w3.org/2000/svg">
<path d="M16.8608 9.65577C16.8608 15.0346 11.3516 18.3484 10.2067 18.9795C10.1433 19.0145 10.072 19.0329 9.99961 19.0329C9.92718 19.0329 9.85593 19.0145 9.79251 18.9795C8.64676 18.3484 3.13928 15.0346 3.13928 9.65577C3.13928 5.36779 5.71207 2.36621 10 2.36621C14.288 2.36621 16.8608 5.36779 16.8608 9.65577Z" stroke="#F8F8F2" stroke-width="1.4" stroke-linecap="round" stroke-linejoin="round"/>
<path d="M6.5697 9.22726C6.5697 10.137 6.93112 11.0096 7.57444 11.6529C8.21776 12.2962 9.09029 12.6576 10.0001 12.6576C10.9099 12.6576 11.7824 12.2962 12.4257 11.6529C13.069 11.0096 13.4305 10.137 13.4305 9.22726C13.4305 8.31746 13.069 7.44493 12.4257 6.80161C11.7824 6.15829 10.9099 5.79688 10.0001 5.79688C9.09029 5.79688 8.21776 6.15829 7.57444 6.80161C6.93112 7.44493 6.5697 8.31746 6.5697 9.22726V9.22726Z" stroke="#F8F8F2" stroke-width="1.4" stroke-linecap="round" stroke-linejoin="round"/>
</svg>
