<svg width="19" height="18" viewBox="0 0 19 18" fill="none" xmlns="http://www.w3.org/2000/svg">
<path d="M4.38742 1.49995C4.82816 1.49994 5.2325 1.48992 5.59348 1.61518C6.01961 1.76318 6.38646 2.04569 6.6384 2.41987C6.85181 2.73705 6.9458 3.13117 7.05832 3.55757L7.49387 5.20893C7.60799 5.64137 7.72378 6.03776 7.6882 6.43354C7.6592 6.75534 7.55519 7.06584 7.38547 7.34077C7.17661 7.6789 6.84648 7.9273 6.49582 8.20503L4.92844 9.44526C5.91861 11.0805 7.30282 12.384 9.04855 13.3173L10.4655 11.7128C10.7383 11.4037 10.9834 11.1126 11.3034 10.9277C11.5642 10.7771 11.8551 10.6847 12.155 10.6572C12.5231 10.6234 12.8914 10.7203 13.2927 10.8154L15.3474 11.3017C15.7042 11.3862 16.0319 11.4566 16.3073 11.6103C16.7893 11.8795 17.1448 12.3292 17.2956 12.8603C17.3818 13.1638 17.3747 13.4985 17.3747 13.8652C17.3747 14.3052 17.3851 14.7113 17.2536 15.08C17.0302 15.706 16.462 16.227 15.8191 16.3955C15.4428 16.4939 15.0731 16.4522 14.6775 16.4179C12.528 16.2316 10.5913 15.7294 8.905 14.9267C6.44522 13.7557 4.53916 11.954 3.29562 9.60932C2.47602 8.06391 1.95108 6.29675 1.73605 4.34077C1.68253 3.8538 1.6176 3.39508 1.77023 2.93159C1.94425 2.40356 2.37865 1.91819 2.88449 1.68745C3.3316 1.48359 3.8406 1.49994 4.38742 1.49995ZM12.2917 12.1503C12.2079 12.1581 12.1263 12.1844 12.0534 12.2265C11.9963 12.2596 11.9322 12.3179 11.5905 12.705L10.4753 13.9677C11.76 14.4592 13.2071 14.7851 14.8073 14.9238C15.2956 14.9661 15.3694 14.9625 15.4392 14.9443C15.6025 14.9015 15.7836 14.7351 15.8405 14.5761C15.864 14.5104 15.8747 14.4187 15.8747 13.8652C15.8747 13.4043 15.8674 13.324 15.8523 13.2705C15.81 13.1218 15.7108 12.9952 15.5759 12.9199C15.5273 12.8928 15.4504 12.8679 15.0017 12.7617L12.947 12.2744C12.4434 12.1551 12.3576 12.1443 12.2917 12.1503ZM4.38742 2.99995C3.69755 2.99995 3.58643 3.01626 3.50656 3.05268C3.38143 3.11 3.23826 3.26972 3.19504 3.40034C3.16653 3.48687 3.16101 3.57394 3.22726 4.17671C3.38563 5.61738 3.7279 6.92152 4.23019 8.08491L5.56515 7.02924C6.00614 6.67997 6.07187 6.61293 6.1091 6.55268C6.1566 6.4757 6.18595 6.38887 6.19406 6.29878C6.2004 6.22824 6.18718 6.13559 6.04367 5.59174L5.60715 3.94038C5.46538 3.40316 5.43192 3.31381 5.39426 3.25776C5.32371 3.153 5.2206 3.07361 5.10129 3.03217C5.0375 3.01013 4.94206 2.99995 4.38742 2.99995Z" fill="#B20000"/>
</svg>
