<svg width="40" height="40" viewBox="0 0 40 40" fill="none" xmlns="http://www.w3.org/2000/svg">
<g clip-path="url(#clip0_72_2457)">
<path d="M35 20C35 18.0302 34.612 16.0796 33.8582 14.2597C33.1044 12.4399 31.9995 10.7863 30.6066 9.3934C29.2137 8.00052 27.5601 6.89563 25.7403 6.14181C23.9204 5.38799 21.9698 5 20 5C18.0302 5 16.0796 5.38799 14.2597 6.14181C12.4399 6.89563 10.7863 8.00052 9.3934 9.3934C8.00052 10.7863 6.89563 12.4399 6.14181 14.2597C5.38799 16.0796 5 18.0302 5 20C5 21.9698 5.38799 23.9204 6.14181 25.7403C6.89563 27.5601 8.00052 29.2137 9.3934 30.6066C10.7863 31.9995 12.4399 33.1044 14.2597 33.8582C16.0796 34.612 18.0302 35 20 35C21.9698 35 23.9204 34.612 25.7403 33.8582C27.5601 33.1044 29.2137 31.9995 30.6066 30.6066C31.9995 29.2137 33.1044 27.5601 33.8582 25.7403C34.612 23.9204 35 21.9698 35 20ZM0 20C0 14.6957 2.10714 9.60859 5.85786 5.85786C9.60859 2.10714 14.6957 0 20 0C25.3043 0 30.3914 2.10714 34.1421 5.85786C37.8929 9.60859 40 14.6957 40 20C40 25.3043 37.8929 30.3914 34.1421 34.1421C30.3914 37.8929 25.3043 40 20 40C14.6957 40 9.60859 37.8929 5.85786 34.1421C2.10714 30.3914 0 25.3043 0 20ZM20 26.25C21.6576 26.25 23.2473 25.5915 24.4194 24.4194C25.5915 23.2473 26.25 21.6576 26.25 20C26.25 18.3424 25.5915 16.7527 24.4194 15.5806C23.2473 14.4085 21.6576 13.75 20 13.75C18.3424 13.75 16.7527 14.4085 15.5806 15.5806C14.4085 16.7527 13.75 18.3424 13.75 20C13.75 21.6576 14.4085 23.2473 15.5806 24.4194C16.7527 25.5915 18.3424 26.25 20 26.25ZM20 8.75C22.9837 8.75 25.8452 9.93526 27.955 12.045C30.0647 14.1548 31.25 17.0163 31.25 20C31.25 22.9837 30.0647 25.8452 27.955 27.955C25.8452 30.0647 22.9837 31.25 20 31.25C17.0163 31.25 14.1548 30.0647 12.045 27.955C9.93526 25.8452 8.75 22.9837 8.75 20C8.75 17.0163 9.93526 14.1548 12.045 12.045C14.1548 9.93526 17.0163 8.75 20 8.75ZM17.5 20C17.5 19.337 17.7634 18.7011 18.2322 18.2322C18.7011 17.7634 19.337 17.5 20 17.5C20.663 17.5 21.2989 17.7634 21.7678 18.2322C22.2366 18.7011 22.5 19.337 22.5 20C22.5 20.663 22.2366 21.2989 21.7678 21.7678C21.2989 22.2366 20.663 22.5 20 22.5C19.337 22.5 18.7011 22.2366 18.2322 21.7678C17.7634 21.2989 17.5 20.663 17.5 20Z" fill="#B20000"/>
</g>
<defs>
<clipPath id="clip0_72_2457">
<rect width="40" height="40" fill="white"/>
</clipPath>
</defs>
</svg>
