<svg width="34" height="46" viewBox="0 0 34 46" fill="none" xmlns="http://www.w3.org/2000/svg">
<g clip-path="url(#clip0_72_2463)">
<path d="M1.41666 6.125C1.41666 3.02246 3.9578 0.5 7.08332 0.5H26.9167C30.0422 0.5 32.5833 3.02246 32.5833 6.125V39.875C32.5833 42.9775 30.0422 45.5 26.9167 45.5H7.08332C3.9578 45.5 1.41666 42.9775 1.41666 39.875V6.125ZM19.8333 39.875C19.8333 39.1291 19.5348 38.4137 19.0035 37.8863C18.4721 37.3588 17.7514 37.0625 17 37.0625C16.2485 37.0625 15.5279 37.3588 14.9965 37.8863C14.4652 38.4137 14.1667 39.1291 14.1667 39.875C14.1667 40.6209 14.4652 41.3363 14.9965 41.8637C15.5279 42.3912 16.2485 42.6875 17 42.6875C17.7514 42.6875 18.4721 42.3912 19.0035 41.8637C19.5348 41.3363 19.8333 40.6209 19.8333 39.875ZM26.9167 6.125H7.08332V34.25H26.9167V6.125Z" fill="#B20000"/>
</g>
<defs>
<clipPath id="clip0_72_2463">
<rect width="34" height="45" fill="white" transform="translate(0 0.5)"/>
</clipPath>
</defs>
</svg>
