<svg width="39" height="46" viewBox="0 0 39 46" fill="none" xmlns="http://www.w3.org/2000/svg">
<g clip-path="url(#clip0_72_2466)">
<path d="M0 6.625C0 3.52246 2.49844 1 5.57143 1H33.4286C36.5016 1 39 3.52246 39 6.625V40.375C39 43.4775 36.5016 46 33.4286 46H5.57143C2.49844 46 0 43.4775 0 40.375V6.625ZM22.2857 40.375C22.2857 39.6291 21.9922 38.9137 21.4698 38.3863C20.9474 37.8588 20.2388 37.5625 19.5 37.5625C18.7612 37.5625 18.0526 37.8588 17.5302 38.3863C17.0078 38.9137 16.7143 39.6291 16.7143 40.375C16.7143 41.1209 17.0078 41.8363 17.5302 42.3637C18.0526 42.8912 18.7612 43.1875 19.5 43.1875C20.2388 43.1875 20.9474 42.8912 21.4698 42.3637C21.9922 41.8363 22.2857 41.1209 22.2857 40.375ZM33.4286 6.625H5.57143V34.75H33.4286V6.625Z" fill="#B20000"/>
</g>
<defs>
<clipPath id="clip0_72_2466">
<rect width="39" height="45" fill="white" transform="translate(0 0.5)"/>
</clipPath>
</defs>
</svg>
