<svg width="129" height="70" viewBox="0 0 129 70" fill="none" xmlns="http://www.w3.org/2000/svg">
<path d="M36.803 11.161V26.9555H39.7798V11.161C39.7798 6.46707 35.9198 2.646 31.291 2.646H27.9543C23.3255 2.646 19.498 6.46707 19.498 11.161V26.9555H22.4423V11.161C22.4423 8.06457 24.9447 5.59408 27.9543 5.59408H31.291C34.3333 5.59408 36.803 8.06457 36.803 11.161ZM22.7694 17.93H36.4759V11.161C36.4759 8.26227 34.137 5.90695 31.291 5.90695H27.9543C25.1574 5.90695 22.7694 8.26227 22.7694 11.161V17.93ZM27.9543 8.88801H31.291C32.534 8.88801 33.4991 9.90915 33.4991 11.161V14.9655H25.7462V11.161C25.7462 9.90915 26.7439 8.88801 27.9543 8.88801ZM25.7462 21.3392H33.4991V26.9555H36.4759V18.3088H22.7694V26.9555H25.7462V21.3392Z" fill="white"/>
<path d="M51.5673 2.81055H42.5714V26.9553H51.502C58.1099 26.9553 63.5402 21.5368 63.5402 14.8336C63.5402 8.22912 58.1425 2.81055 51.5673 2.81055ZM51.5673 24.0896H45.5155V5.67627H51.502C56.556 5.67627 60.6615 9.81021 60.6615 14.8336C60.6615 19.9227 56.5888 24.0896 51.5673 24.0896ZM51.502 6.05509H45.8264V23.7108H51.502C56.3434 23.7108 60.2852 19.7416 60.2852 14.8336C60.2852 10.0079 56.3434 6.05509 51.502 6.05509ZM51.5673 20.8615H48.6886V8.90441H51.5673C54.806 8.90441 57.4065 11.6548 57.4065 14.8336C57.4065 18.1605 54.806 20.8615 51.5673 20.8615Z" fill="white"/>
<path d="M83.4894 11.161V26.9555H86.4662V11.161C86.4662 6.46707 82.6061 2.646 77.9773 2.646H74.6406C70.0119 2.646 66.1844 6.46707 66.1844 11.161V26.9555H69.1286V11.161C69.1286 8.06457 71.6311 5.59408 74.6406 5.59408H77.9773C81.0196 5.59408 83.4894 8.06457 83.4894 11.161ZM69.4558 17.93H83.1622V11.161C83.1622 8.26227 80.8233 5.90695 77.9773 5.90695H74.6406C71.8437 5.90695 69.4558 8.26227 69.4558 11.161V17.93ZM74.6406 8.88801H77.9773C79.2204 8.88801 80.1854 9.90915 80.1854 11.161V14.9655H72.4326V11.161C72.4326 9.90915 73.4302 8.88801 74.6406 8.88801ZM72.4326 21.3392H80.1854V26.9555H83.1622V18.3088H69.4558V26.9555H72.4326V21.3392Z" fill="white"/>
<path d="M96.6182 5.46227H99.5295C102.097 5.46227 104.682 6.77987 105.025 9.41508L107.724 8.93733C107.086 5.21519 103.488 2.69531 99.7586 2.69531H96.5199C86.6245 2.69531 86.3136 17.9135 97.4359 17.9135H100.478C102.31 17.9135 102.343 21.1086 100.478 21.1086H97.1578C96.34 21.0427 95.6367 20.4663 95.3914 19.7251L92.5127 20.2686C92.889 22.7557 95.2606 23.9744 97.6323 24.0238L100.511 24.0567C103.226 24.0567 104.747 21.998 104.747 19.4122C104.747 17.2218 103.161 15.1465 100.004 15.1465L96.9942 15.1135C90.5499 15.0807 90.4845 5.37991 96.6182 5.46227ZM100.511 24.3862L97.6649 24.3532C95.097 24.3532 92.5127 23.0192 92.1693 20.3676L89.4049 20.8452C90.1083 24.5673 93.7067 27.0872 97.4359 27.0872H99.8403C105.222 27.0872 108.002 23.2333 107.969 19.4122C107.904 15.6241 105.123 11.869 99.7586 11.869H96.7163C94.8516 11.869 94.8516 8.69041 96.7163 8.69041H100.037C100.854 8.72322 101.558 9.31615 101.803 10.0574L104.649 9.51385C104.306 7.02696 101.934 5.75873 99.5622 5.75873H96.5854C90.9261 5.72576 91.0243 14.7347 96.9452 14.8007H100.004C103.455 14.8007 105.058 17.09 105.058 19.4122C105.058 22.0638 103.798 24.3862 100.511 24.3862Z" fill="white"/>
<path d="M28.8918 33.7217H19.8959V57.8665H28.8265C35.4344 57.8665 40.8647 52.4479 40.8647 45.7447C40.8647 39.1403 35.467 33.7217 28.8918 33.7217ZM28.8918 55.0007H22.84V36.5874H28.8265C33.8805 36.5874 37.9859 40.7213 37.9859 45.7447C37.9859 50.8338 33.9133 55.0007 28.8918 55.0007ZM28.8265 36.9662H23.1509V54.6219H28.8265C33.6679 54.6219 37.6097 50.6527 37.6097 45.7447C37.6097 40.919 33.6679 36.9662 28.8265 36.9662ZM28.8918 51.7726H26.0131V39.8155H28.8918C32.1304 39.8155 34.731 42.5659 34.731 45.7447C34.731 49.0716 32.1304 51.7726 28.8918 51.7726Z" fill="white"/>
<path d="M43.6397 42.1379V49.5164C43.6397 54.0622 47.4017 57.8831 51.9489 57.8831H60.4049V55.0009H51.9489C49.0211 55.0009 46.5349 52.5468 46.5349 49.5494V42.0391C46.5349 39.0417 49.0211 36.5876 51.9489 36.5876H60.4049V33.7383H51.9489C47.4017 33.7383 43.6397 37.5264 43.6397 42.1379ZM49.7571 42.0391V42.6979H60.4049V45.6131H46.8784V42.0391C46.8784 39.2558 49.2173 36.9334 51.9489 36.9334H60.4049V39.8321H51.9489C50.7547 39.8321 49.7571 40.8369 49.7571 42.0391ZM46.8784 45.959H60.4049V48.8907H49.7571V49.5494C49.7571 50.7516 50.7547 51.7564 51.9489 51.7564H60.4049V54.6551H51.9489C49.2173 54.6551 46.8784 52.3327 46.8784 49.5494V45.959Z" fill="white"/>
<path d="M73.7791 49.0387H66.4352V57.8665H69.3465V51.9704H73.7463C78.3752 51.9704 82.1371 48.1823 82.1371 43.5213V42.1048C82.1371 37.4933 78.3752 33.6724 73.7463 33.6724H71.571C67.0075 33.6724 63.1802 37.4275 63.1802 42.006V57.8665H66.0589V42.039C66.0589 39.0086 68.5614 36.5545 71.5382 36.5545H73.7791C76.7558 36.5545 79.2583 39.0086 79.2583 42.1048V43.5213C79.2583 46.5518 76.7558 49.0387 73.7791 49.0387ZM66.4352 42.1048V48.6599H73.7791C76.5924 48.6599 78.9149 46.3541 78.9149 43.5213V42.1048C78.9149 39.2557 76.5924 36.9003 73.7791 36.9003H71.5382C68.5942 36.9003 66.4352 39.3214 66.4352 42.1048ZM75.9708 42.1048V43.5213C75.9708 44.74 74.973 45.7612 73.7791 45.7612H69.3465V42.1048C69.3465 40.8368 70.328 39.832 71.5382 39.832H73.7791C74.973 39.832 75.9708 40.8368 75.9708 42.1048Z" fill="white"/>
<path d="M96.6888 33.3926C89.9336 33.3926 84.4216 38.9429 84.4216 45.8108C84.4216 52.6129 89.9336 58.1633 96.6888 58.1633C103.542 58.1633 109.021 52.6129 109.021 45.8108C109.021 38.9429 103.542 33.3926 96.6888 33.3926ZM96.6888 55.1822C91.553 55.1822 87.4148 50.9825 87.4148 45.8108C87.4148 40.5734 91.553 36.3736 96.6888 36.3736C101.923 36.3736 106.061 40.5734 106.061 45.8108C106.061 50.9825 101.923 55.1822 96.6888 55.1822ZM96.6888 36.7195C91.7656 36.7195 87.7583 40.7547 87.7583 45.8108C87.7583 50.7684 91.7656 54.787 96.6888 54.787C101.71 54.787 105.717 50.7684 105.717 45.8108C105.717 40.7547 101.71 36.7195 96.6888 36.7195ZM96.6888 51.8059C93.4339 51.8059 90.7351 49.0883 90.7351 45.8108C90.7351 42.4675 93.4339 39.7499 96.6888 39.7499C100.091 39.7499 102.741 42.4675 102.741 45.8108C102.741 49.0883 100.091 51.8059 96.6888 51.8059Z" fill="white"/>
<path d="M111.11 36.5546H128.938V33.7383H111.11V36.5546ZM111.11 39.7664H116.998V57.8502H119.86V36.9005H111.11V39.7664ZM120.236 57.8502H123.05V39.7664H128.938V36.9005H120.171C120.171 43.9001 120.236 50.8834 120.236 57.8502Z" fill="white"/>
<path d="M0.355743 66.3301V67.9004C0.355743 68.8678 1.15639 69.681 2.12408 69.681H3.92368V69.0677H2.12408C1.50101 69.0677 0.971904 68.5453 0.971904 67.9073V66.309C0.971904 65.6712 1.50101 65.1488 2.12408 65.1488H3.92368V64.5425H2.12408C1.15639 64.5425 0.355743 65.3487 0.355743 66.3301ZM1.65768 66.309V66.4492H3.92368V67.0696H1.04497V66.309C1.04497 65.7167 1.54281 65.2224 2.12408 65.2224H3.92368V65.8394H2.12408C1.86998 65.8394 1.65768 66.0531 1.65768 66.309ZM1.04497 67.1432H3.92368V67.7671H1.65768V67.9073C1.65768 68.1634 1.86998 68.3771 2.12408 68.3771H3.92368V68.9939H2.12408C1.54281 68.9939 1.04497 68.4998 1.04497 67.9073V67.1432Z" fill="white"/>
<path d="M9.1689 69.678H9.86867L9.26287 68.6229C9.56585 68.1954 9.7398 67.6837 9.7398 67.1157C9.7398 65.6682 8.57364 64.5044 7.1361 64.5044C5.69839 64.5044 4.53223 65.6682 4.53223 67.1157C4.53223 68.5704 5.69839 69.7377 7.1361 69.7377C7.55033 69.7377 7.92967 69.6429 8.28827 69.4712L8.39623 69.678H9.08184C8.86954 69.3169 8.66761 68.9595 8.46223 68.6019C8.10724 68.9139 7.64775 69.1138 7.1361 69.1138C6.04646 69.1138 5.15892 68.2269 5.15892 67.1157C5.15892 66.0222 6.04646 65.1248 7.1361 65.1248C8.22211 65.1248 9.12019 66.0222 9.12019 67.1157C9.12019 67.6837 8.88353 68.1884 8.5111 68.5389C8.74085 68.928 8.94969 69.303 9.1689 69.678ZM7.1361 65.1984C6.07789 65.1984 5.23199 66.0643 5.23199 67.1157C5.23199 68.1813 6.07789 69.0331 7.1361 69.0331C8.18739 69.0331 9.04021 68.1813 9.04021 67.1157C9.04021 66.0643 8.18739 65.1984 7.1361 65.1984ZM7.1361 68.4092C6.42942 68.4092 5.85852 67.8273 5.85852 67.1157C5.85852 66.4113 6.42942 65.8329 7.1361 65.8329C7.84277 65.8329 8.41713 66.4113 8.41713 67.1157C8.41713 67.8273 7.84277 68.4092 7.1361 68.4092Z" fill="white"/>
<path d="M13.887 68.4231C13.692 68.8682 13.1907 69.075 12.7139 69.075H12.0837C11.3493 69.075 10.8723 68.6579 10.8723 67.9218C10.8723 66.7966 10.8654 65.6715 10.8654 64.5322H10.2632V67.9218C10.2632 68.9207 11.0325 69.6744 12.0247 69.6744H12.773C13.1698 69.6744 13.5249 69.5481 13.8243 69.3449C14.0262 69.5201 14.2732 69.6427 14.5413 69.7165V69.0891C14.2281 68.9804 13.96 68.7595 13.887 68.4231ZM13.8521 68.1321L13.859 64.5322H13.229V67.9218C13.229 68.1462 13.0549 68.3424 12.8148 68.3599H11.9654C11.7426 68.3424 11.5616 68.1601 11.5616 67.9218V64.5322H10.9456C10.9456 65.6644 10.9385 66.7966 10.9456 67.9218C10.9456 68.5982 11.3945 68.9943 12.0699 68.9943H12.7277C13.2568 68.9943 13.8521 68.7 13.8521 68.1321ZM14.5413 64.5322H13.9391C13.9322 65.731 13.9182 66.9263 13.9182 68.1251C13.9322 68.5561 14.148 68.8541 14.5413 69.0014C14.5413 67.5116 14.5344 66.029 14.5413 64.5322Z" fill="white"/>
<path d="M15.2745 69.6779H15.9114V64.5322H15.2745V69.6779ZM15.9846 69.6779H16.6146V64.5322H15.9846V69.6779Z" fill="white"/>
<path d="M19.5784 67.7987H18.0155V69.6774H18.6351V68.4226H19.5715C20.5566 68.4226 21.3573 67.6164 21.3573 66.6245V66.323C21.3573 65.3415 20.5566 64.5283 19.5715 64.5283H19.1086C18.1374 64.5283 17.3228 65.3276 17.3228 66.302V69.6774H17.9355V66.3089C17.9355 65.664 18.468 65.1418 19.1017 65.1418H19.5784C20.212 65.1418 20.7446 65.664 20.7446 66.323V66.6245C20.7446 67.2694 20.212 67.7987 19.5784 67.7987ZM18.0155 66.323V67.718H19.5784C20.1773 67.718 20.6715 67.2273 20.6715 66.6245V66.323C20.6715 65.7167 20.1773 65.2154 19.5784 65.2154H19.1017C18.475 65.2154 18.0155 65.7306 18.0155 66.323ZM20.045 66.323V66.6245C20.045 66.8838 19.8327 67.1012 19.5784 67.1012H18.6351V66.323C18.6351 66.0531 18.8439 65.8393 19.1017 65.8393H19.5784C19.8327 65.8393 20.045 66.0531 20.045 66.323Z" fill="white"/>
<path d="M21.882 65.4997V69.6779H22.5154L22.5189 65.5488C22.5189 65.2018 22.8044 65.0791 22.9923 65.3667L24.2734 67.361C24.3639 67.4978 24.43 67.4802 24.5135 67.347L25.7911 65.3667C25.979 65.0791 26.2609 65.2018 26.2609 65.5488V69.6779H26.9014L26.898 65.4997C26.898 64.2729 25.6693 64.266 25.3072 64.8864L24.3882 66.4637L23.4727 64.8864C23.1141 64.266 21.8854 64.2729 21.882 65.4997ZM25.5508 69.6779H26.1844L26.1809 65.5488C26.1809 65.2439 25.9686 65.2193 25.8467 65.4122L24.5762 67.396C24.4648 67.5818 24.3221 67.5818 24.2072 67.3995L22.9367 65.4122C22.8113 65.2193 22.5955 65.2439 22.5955 65.5488V69.6779H23.2324L23.1664 66.9333L23.8313 67.985C24.141 68.4791 24.6074 68.4757 24.9382 67.9989L25.6344 66.8387L25.5508 69.6779Z" fill="white"/>
<path d="M27.5782 66.3301V67.9004C27.5782 68.8678 28.3788 69.681 29.3465 69.681H31.1461V69.0677H29.3465C28.7234 69.0677 28.1943 68.5453 28.1943 67.9073V66.309C28.1943 65.6712 28.7234 65.1488 29.3465 65.1488H31.1461V64.5425H29.3465C28.3788 64.5425 27.5782 65.3487 27.5782 66.3301ZM28.8801 66.309V66.4492H31.1461V67.0696H28.2674V66.309C28.2674 65.7167 28.7652 65.2224 29.3465 65.2224H31.1461V65.8394H29.3465C29.0924 65.8394 28.8801 66.0531 28.8801 66.309ZM28.2674 67.1432H31.1461V67.7671H28.8801V67.9073C28.8801 68.1634 29.0924 68.3771 29.3465 68.3771H31.1461V68.9939H29.3465C28.7652 68.9939 28.2674 68.4998 28.2674 67.9073V67.1432Z" fill="white"/>
<path d="M31.7581 65.5137L31.7546 69.6743H32.3917V65.5627C32.3917 65.2192 32.6841 65.086 32.8617 65.3839L34.9294 68.7839C35.1174 68.9907 35.3818 68.9102 35.3818 68.6368V64.5287H34.7484L34.8006 67.5011L33.3419 64.9039C32.9904 64.2763 31.7581 64.2904 31.7581 65.5137ZM32.4682 69.6743H33.1018L33.0775 66.9964L34.4107 69.3204C34.8842 70.1405 36.092 69.8004 36.0954 68.8225V64.5287H35.4585V68.6368C35.4585 68.9838 35.1034 69.089 34.8702 68.8401L32.8025 65.4295C32.6876 65.2333 32.4718 65.2544 32.4718 65.5627L32.4682 69.6743Z" fill="white"/>
<path d="M36.6093 65.1419H40.4035V64.5425H36.6093V65.1419ZM36.6093 65.8253H37.8623V69.674H38.4716V65.2155H36.6093V65.8253ZM38.5516 69.674H39.1503V65.8253H40.4035V65.2155H38.5377C38.5377 66.7051 38.5516 68.1914 38.5516 69.674Z" fill="white"/>
<path d="M44.345 65.7866C43.621 65.7866 43.0467 66.3754 43.0467 67.087C43.0467 67.8125 43.621 68.3945 44.345 68.3945C45.0517 68.3945 45.6329 67.8125 45.6329 67.087C45.6329 66.3754 45.0517 65.7866 44.345 65.7866ZM44.345 66.5892C44.62 66.5892 44.8323 66.8066 44.8323 67.087C44.8323 67.3674 44.62 67.5918 44.345 67.5918C44.0665 67.5918 43.8402 67.3674 43.8402 67.087C43.8402 66.8066 44.0665 66.5892 44.345 66.5892ZM44.345 66.6629C44.5782 66.6629 44.7661 66.8522 44.7661 67.087C44.7661 67.3218 44.5782 67.5182 44.345 67.5182C44.1118 67.5182 43.9133 67.3218 43.9133 67.087C43.9133 66.8522 44.1118 66.6629 44.345 66.6629Z" fill="white"/>
<path d="M49.9305 65.1034H50.5501C51.0966 65.1034 51.6466 65.3838 51.7197 65.9448L52.2941 65.843C52.1583 65.0509 51.3925 64.5146 50.599 64.5146H49.9097C47.8037 64.5146 47.7375 67.7534 50.1046 67.7534H50.752C51.1419 67.7534 51.149 68.4333 50.752 68.4333H50.0453C49.8714 68.4194 49.7216 68.2966 49.6695 68.1389L49.0568 68.2545C49.1369 68.7838 49.6416 69.0433 50.1464 69.0538L50.7591 69.0607C51.3369 69.0607 51.6606 68.6226 51.6606 68.0724C51.6606 67.6061 51.3229 67.1644 50.6511 67.1644L50.0106 67.1575C48.6391 67.1505 48.6252 65.0859 49.9305 65.1034ZM50.7591 69.1308L50.1533 69.1239C49.6068 69.1239 49.0568 68.84 48.9837 68.2756L48.3955 68.3773C48.5451 69.1694 49.3109 69.7057 50.1046 69.7057H50.6162C51.7615 69.7057 52.3533 68.8856 52.3464 68.0724C52.3324 67.2662 51.7406 66.4669 50.599 66.4669H49.9514C49.5546 66.4669 49.5546 65.7905 49.9514 65.7905H50.658C50.8322 65.7975 50.9818 65.9237 51.0341 66.0813L51.6397 65.9657C51.5667 65.4365 51.0619 65.1666 50.5572 65.1666H49.9236C48.7192 65.1596 48.7401 67.0769 50.0001 67.0909H50.6511C51.3856 67.0909 51.7268 67.5781 51.7268 68.0724C51.7268 68.6367 51.4587 69.1308 50.7591 69.1308Z" fill="white"/>
<path d="M56.5261 68.4231C56.3311 68.8682 55.8298 69.075 55.353 69.075H54.7228C53.9884 69.075 53.5114 68.6579 53.5114 67.9218C53.5114 66.7966 53.5045 65.6715 53.5045 64.5322H52.9023V67.9218C52.9023 68.9207 53.6716 69.6744 54.6638 69.6744H55.4121C55.8089 69.6744 56.164 69.5481 56.4634 69.3449C56.6653 69.5201 56.9123 69.6427 57.1804 69.7165V69.0891C56.8672 68.9804 56.5991 68.7595 56.5261 68.4231ZM56.4912 68.1321L56.4981 64.5322H55.8681V67.9218C55.8681 68.1462 55.694 68.3424 55.4539 68.3599H54.6045C54.3817 68.3424 54.2007 68.1601 54.2007 67.9218V64.5322H53.5847C53.5847 65.6644 53.5776 66.7966 53.5847 67.9218C53.5847 68.5982 54.0336 68.9943 54.709 68.9943H55.3668C55.8959 68.9943 56.4912 68.7 56.4912 68.1321ZM57.1804 64.5322H56.5782C56.5713 65.731 56.5573 66.9263 56.5573 68.1251C56.5713 68.5561 56.7871 68.8541 57.1804 69.0014C57.1804 67.5116 57.1735 66.029 57.1804 64.5322Z" fill="white"/>
<path d="M60.0925 67.7987H58.5296V69.6774H59.1492V68.4226H60.0856C61.0708 68.4226 61.8714 67.6164 61.8714 66.6245V66.323C61.8714 65.3415 61.0708 64.5283 60.0856 64.5283H59.6227C58.6515 64.5283 57.8369 65.3276 57.8369 66.302V69.6774H58.4496V66.3089C58.4496 65.664 58.9822 65.1418 59.6158 65.1418H60.0925C60.7262 65.1418 61.2587 65.664 61.2587 66.323V66.6245C61.2587 67.2694 60.7262 67.7987 60.0925 67.7987ZM58.5296 66.323V67.718H60.0925C60.6914 67.718 61.1856 67.2273 61.1856 66.6245V66.323C61.1856 65.7167 60.6914 65.2154 60.0925 65.2154H59.6158C58.9891 65.2154 58.5296 65.7306 58.5296 66.323ZM60.5591 66.323V66.6245C60.5591 66.8838 60.3468 67.1012 60.0925 67.1012H59.1492V66.323C59.1492 66.0531 59.3581 65.8393 59.6158 65.8393H60.0925C60.3468 65.8393 60.5591 66.0531 60.5591 66.323Z" fill="white"/>
<path d="M64.6655 67.7987H63.1026V69.6774H63.7222V68.4226H64.6586C65.6438 68.4226 66.4444 67.6164 66.4444 66.6245V66.323C66.4444 65.3415 65.6438 64.5283 64.6586 64.5283H64.1957C63.2245 64.5283 62.4099 65.3276 62.4099 66.302V69.6774H63.0226V66.3089C63.0226 65.664 63.5552 65.1418 64.1888 65.1418H64.6655C65.2992 65.1418 65.8317 65.664 65.8317 66.323V66.6245C65.8317 67.2694 65.2992 67.7987 64.6655 67.7987ZM63.1026 66.323V67.718H64.6655C65.2644 67.718 65.7586 67.2273 65.7586 66.6245V66.323C65.7586 65.7167 65.2644 65.2154 64.6655 65.2154H64.1888C63.5621 65.2154 63.1026 65.7306 63.1026 66.323ZM65.1321 66.323V66.6245C65.1321 66.8838 64.9198 67.1012 64.6655 67.1012H63.7222V66.323C63.7222 66.0531 63.9311 65.8393 64.1888 65.8393H64.6655C64.9198 65.8393 65.1321 66.0531 65.1321 66.323Z" fill="white"/>
<path d="M68.3301 67.9918V66.0009C68.3301 65.1947 67.8045 64.5113 66.9934 64.4902V65.1702C67.4807 65.1702 67.7036 65.5241 67.7036 66.0079C67.7105 66.6459 67.7036 67.3679 67.7036 68.0129C67.7036 68.6543 68.3092 68.9768 68.8696 68.9768H69.8652V68.3319H68.7025C68.5041 68.3319 68.3301 68.1882 68.3301 67.9918ZM67.0004 68.0129L66.9934 65.2543C67.4495 65.2543 67.6269 65.6014 67.6269 66.0219V68.0198C67.62 68.721 68.2639 69.0608 68.8836 69.0608H69.8652V69.6778H68.8243C67.9228 69.6778 67.0004 68.9768 67.0004 68.0129Z" fill="white"/>
<path d="M70.5199 69.6779H71.1568V64.5322H70.5199V69.6779ZM71.23 69.6779H71.86V64.5322H71.23V69.6779Z" fill="white"/>
<path d="M72.61 66.3301V67.9004C72.61 68.8678 73.4106 69.681 74.3783 69.681H76.1779V69.0677H74.3783C73.7552 69.0677 73.2261 68.5453 73.2261 67.9073V66.309C73.2261 65.6712 73.7552 65.1488 74.3783 65.1488H76.1779V64.5425H74.3783C73.4106 64.5425 72.61 65.3487 72.61 66.3301ZM73.9119 66.309V66.4492H76.1779V67.0696H73.2992V66.309C73.2992 65.7167 73.797 65.2224 74.3783 65.2224H76.1779V65.8394H74.3783C74.1242 65.8394 73.9119 66.0531 73.9119 66.309ZM73.2992 67.1432H76.1779V67.7671H73.9119V67.9073C73.9119 68.1634 74.1242 68.3771 74.3783 68.3771H76.1779V68.9939H74.3783C73.797 68.9939 73.2992 68.4998 73.2992 67.9073V67.1432Z" fill="white"/>
<path d="M78.3738 65.1034H78.9934C79.5399 65.1034 80.0899 65.3838 80.163 65.9448L80.7374 65.843C80.6016 65.0509 79.8358 64.5146 79.0423 64.5146H78.353C76.247 64.5146 76.1808 67.7534 78.5479 67.7534H79.1953C79.5852 67.7534 79.5923 68.4333 79.1953 68.4333H78.4886C78.3147 68.4194 78.1649 68.2966 78.1128 68.1389L77.5001 68.2545C77.5802 68.7838 78.0849 69.0433 78.5897 69.0538L79.2024 69.0607C79.7802 69.0607 80.1039 68.6226 80.1039 68.0724C80.1039 67.6061 79.7662 67.1644 79.0944 67.1644L78.4539 67.1575C77.0824 67.1505 77.0685 65.0859 78.3738 65.1034ZM79.2024 69.1308L78.5966 69.1239C78.0501 69.1239 77.5001 68.84 77.427 68.2756L76.8388 68.3773C76.9884 69.1694 77.7542 69.7057 78.5479 69.7057H79.0595C80.2048 69.7057 80.7966 68.8856 80.7897 68.0724C80.7757 67.2662 80.1839 66.4669 79.0423 66.4669H78.3947C77.9979 66.4669 77.9979 65.7905 78.3947 65.7905H79.1013C79.2755 65.7975 79.4251 65.9237 79.4774 66.0813L80.083 65.9657C80.01 65.4365 79.5052 65.1666 79.0005 65.1666H78.3669C77.1625 65.1596 77.1834 67.0769 78.4434 67.0909H79.0944C79.8289 67.0909 80.1701 67.5781 80.1701 68.0724C80.1701 68.6367 79.902 69.1308 79.2024 69.1308Z" fill="white"/>
<path d="M84.6891 65.7866C83.9651 65.7866 83.3907 66.3754 83.3907 67.087C83.3907 67.8125 83.9651 68.3945 84.6891 68.3945C85.3957 68.3945 85.977 67.8125 85.977 67.087C85.977 66.3754 85.3957 65.7866 84.6891 65.7866ZM84.6891 66.5892C84.9641 66.5892 85.1764 66.8066 85.1764 67.087C85.1764 67.3674 84.9641 67.5918 84.6891 67.5918C84.4106 67.5918 84.1843 67.3674 84.1843 67.087C84.1843 66.8066 84.4106 66.5892 84.6891 66.5892ZM84.6891 66.6629C84.9223 66.6629 85.1102 66.8522 85.1102 67.087C85.1102 67.3218 84.9223 67.5182 84.6891 67.5182C84.4559 67.5182 84.2574 67.3218 84.2574 67.087C84.2574 66.8522 84.4559 66.6629 84.6891 66.6629Z" fill="white"/>
<path d="M88.7499 66.3301V67.9004C88.7499 68.8678 89.5506 69.681 90.5182 69.681H92.3178V69.0677H90.5182C89.8952 69.0677 89.3661 68.5453 89.3661 67.9073V66.309C89.3661 65.6712 89.8952 65.1488 90.5182 65.1488H92.3178V64.5425H90.5182C89.5506 64.5425 88.7499 65.3487 88.7499 66.3301ZM90.0518 66.309V66.4492H92.3178V67.0696H89.4391V66.309C89.4391 65.7167 89.937 65.2224 90.5182 65.2224H92.3178V65.8394H90.5182C90.2641 65.8394 90.0518 66.0531 90.0518 66.309ZM89.4391 67.1432H92.3178V67.7671H90.0518V67.9073C90.0518 68.1634 90.2641 68.3771 90.5182 68.3771H92.3178V68.9939H90.5182C89.937 68.9939 89.4391 68.4998 89.4391 67.9073V67.1432Z" fill="white"/>
<path d="M94.8619 64.5391H92.9473V69.6776H94.8479C96.2542 69.6776 97.41 68.5244 97.41 67.0977C97.41 65.6923 96.2613 64.5391 94.8619 64.5391ZM94.8619 69.0677H93.574V65.1489H94.8479C95.9236 65.1489 96.7973 66.0287 96.7973 67.0977C96.7973 68.1808 95.9305 69.0677 94.8619 69.0677ZM94.8479 65.2296H93.64V68.987H94.8479C95.8783 68.987 96.7172 68.1424 96.7172 67.0977C96.7172 66.0708 95.8783 65.2296 94.8479 65.2296ZM94.8619 68.3807H94.2492V65.836H94.8619C95.5512 65.836 96.1046 66.4213 96.1046 67.0977C96.1046 67.8058 95.5512 68.3807 94.8619 68.3807Z" fill="white"/>
<path d="M101.634 68.4231C101.439 68.8682 100.938 69.075 100.461 69.075H99.8311C99.0966 69.075 98.6197 68.6579 98.6197 67.9218C98.6197 66.7966 98.6128 65.6715 98.6128 64.5322H98.0106V67.9218C98.0106 68.9207 98.7798 69.6744 99.772 69.6744H100.52C100.917 69.6744 101.272 69.5481 101.572 69.3449C101.774 69.5201 102.021 69.6427 102.289 69.7165V69.0891C101.976 68.9804 101.707 68.7595 101.634 68.4231ZM101.599 68.1321L101.606 64.5322H100.976V67.9218C100.976 68.1462 100.802 68.3424 100.562 68.3599H99.7128C99.49 68.3424 99.3089 68.1601 99.3089 67.9218V64.5322H98.6929C98.6929 65.6644 98.6859 66.7966 98.6929 67.9218C98.6929 68.5982 99.1419 68.9943 99.8173 68.9943H100.475C101.004 68.9943 101.599 68.7 101.599 68.1321ZM102.289 64.5322H101.687C101.68 65.731 101.666 66.9263 101.666 68.1251C101.68 68.5561 101.895 68.8541 102.289 69.0014C102.289 67.5116 102.282 66.029 102.289 64.5322Z" fill="white"/>
<path d="M105.556 64.5073C104.115 64.5073 102.963 65.6711 102.963 67.1117C102.963 68.5558 104.115 69.7161 105.556 69.7161C106.057 69.7161 106.531 69.5723 106.938 69.3129L106.625 68.7556C106.315 68.973 105.942 69.0816 105.556 69.0816C104.473 69.0816 103.593 68.2018 103.593 67.1117C103.593 66.0216 104.473 65.1418 105.556 65.1418C105.942 65.1418 106.315 65.2506 106.625 65.4678L106.938 64.9036C106.531 64.6512 106.057 64.5073 105.556 64.5073ZM105.556 65.2085C104.508 65.2085 103.659 66.0672 103.659 67.1117C103.659 68.1597 104.508 69.015 105.556 69.015C105.935 69.015 106.294 68.8993 106.586 68.6996L106.287 68.1423C106.071 68.2964 105.828 68.3806 105.556 68.3806C104.846 68.3806 104.289 67.8198 104.289 67.1117C104.289 66.4036 104.846 65.8428 105.556 65.8428C105.828 65.8428 106.071 65.9305 106.287 66.0811L106.586 65.5238C106.294 65.3241 105.935 65.2085 105.556 65.2085Z" fill="white"/>
<path d="M111.208 66.3167V69.678H111.842V66.3167C111.842 65.3176 111.02 64.5044 110.035 64.5044H109.325C108.34 64.5044 107.525 65.3176 107.525 66.3167V69.678H108.152V66.3167C108.152 65.6576 108.684 65.1318 109.325 65.1318H110.035C110.682 65.1318 111.208 65.6576 111.208 66.3167ZM108.221 67.7572H111.138V66.3167C111.138 65.6997 110.641 65.1984 110.035 65.1984H109.325C108.73 65.1984 108.221 65.6997 108.221 66.3167V67.7572ZM109.325 65.8329H110.035C110.3 65.8329 110.505 66.0502 110.505 66.3167V67.1263H108.855V66.3167C108.855 66.0502 109.067 65.8329 109.325 65.8329ZM108.855 68.4827H110.505V69.678H111.138V67.8378H108.221V69.678H108.855V68.4827Z" fill="white"/>
<path d="M112.366 65.1419H116.16V64.5425H112.366V65.1419ZM112.366 65.8253H113.619V69.674H114.228V65.2155H112.366V65.8253ZM114.308 69.674H114.907V65.8253H116.16V65.2155H114.294C114.294 66.7051 114.308 68.1914 114.308 69.674Z" fill="white"/>
<path d="M116.821 69.6779H117.458V64.5322H116.821V69.6779ZM117.531 69.6779H118.161V64.5322H117.531V69.6779Z" fill="white"/>
<path d="M121.466 64.4688C120.028 64.4688 118.855 65.65 118.855 67.1116C118.855 68.5593 120.028 69.7405 121.466 69.7405C122.925 69.7405 124.091 68.5593 124.091 67.1116C124.091 65.65 122.925 64.4688 121.466 64.4688ZM121.466 69.106C120.373 69.106 119.492 68.2123 119.492 67.1116C119.492 65.997 120.373 65.1031 121.466 65.1031C122.58 65.1031 123.461 65.997 123.461 67.1116C123.461 68.2123 122.58 69.106 121.466 69.106ZM121.466 65.1767C120.418 65.1767 119.566 66.0354 119.566 67.1116C119.566 68.1667 120.418 69.022 121.466 69.022C122.535 69.022 123.388 68.1667 123.388 67.1116C123.388 66.0354 122.535 65.1767 121.466 65.1767ZM121.466 68.3874C120.773 68.3874 120.199 67.8091 120.199 67.1116C120.199 66.4 120.773 65.8217 121.466 65.8217C122.19 65.8217 122.754 66.4 122.754 67.1116C122.754 67.8091 122.19 68.3874 121.466 68.3874Z" fill="white"/>
<path d="M124.663 65.5137L124.659 69.6743H125.296V65.5627C125.296 65.2192 125.589 65.086 125.766 65.3839L127.834 68.7839C128.022 68.9907 128.286 68.9102 128.286 68.6368V64.5287H127.653L127.705 67.5011L126.247 64.9039C125.895 64.2763 124.663 64.2904 124.663 65.5137ZM125.373 69.6743H126.006L125.982 66.9964L127.315 69.3204C127.789 70.1405 128.997 69.8004 129 68.8225V64.5287H128.363V68.6368C128.363 68.9838 128.008 69.089 127.775 68.8401L125.707 65.4295C125.592 65.2333 125.376 65.2544 125.376 65.5627L125.373 69.6743Z" fill="white"/>
<rect x="7.37967" y="0.884766" width="6.32545" height="15.9235" fill="white"/>
<rect x="1.05417" y="0.884766" width="6.32545" height="31.67" fill="white"/>
<rect x="0.75" y="0.75" width="13.4351" height="57.2398" stroke="white" stroke-width="1.5"/>
<rect x="7.37967" y="51.3091" width="3.16273" height="3.36162" fill="white"/>
<rect x="7.37967" y="45.1167" width="3.16273" height="3.18469" fill="white"/>
<rect x="4.21695" y="41.9321" width="3.16273" height="3.18469" fill="white"/>
<rect x="7.37967" y="38.7471" width="3.16273" height="3.18469" fill="white"/>
<rect x="4.21695" y="35.5625" width="3.16273" height="3.18469" fill="white"/>
<rect x="7.37967" y="32.3779" width="3.16273" height="3.18469" fill="white"/>
<rect x="7.37967" y="26.1855" width="3.16273" height="3.18469" fill="white"/>
<rect x="7.37967" y="19.8159" width="3.16273" height="3.18469" fill="white"/>
<rect x="4.21695" y="26.1855" width="3.16273" height="3.18469" fill="black"/>
<rect x="4.21695" y="19.8159" width="3.16273" height="3.18469" fill="black"/>
<rect x="4.21695" y="13.6235" width="3.16273" height="3.18469" fill="black"/>
<rect x="7.37967" y="10.4385" width="3.16273" height="3.18469" fill="black"/>
<rect x="4.21695" y="7.43115" width="3.16273" height="3.18469" fill="black"/>
<rect x="7.37967" y="4.06934" width="3.16273" height="3.36162" fill="black"/>
<rect x="4.21695" y="0.884766" width="3.16273" height="3.18469" fill="black"/>
<rect x="1.05417" y="48.3013" width="6.32545" height="9.37714" fill="white"/>
<rect x="4.21695" y="51.3091" width="3.16273" height="3.36162" fill="black"/>
</svg>
