<svg width="104" height="56" viewBox="0 0 104 56" fill="none" xmlns="http://www.w3.org/2000/svg">
<path d="M29.5347 8.95662V21.6319H31.9236V8.95662C31.9236 5.18973 28.8259 2.12329 25.1113 2.12329H22.4335C18.7189 2.12329 15.6473 5.18973 15.6473 8.95662V21.6319H18.0101V8.95662C18.0101 6.47174 20.0184 4.48915 22.4335 4.48915H25.1113C27.5527 4.48915 29.5347 6.47174 29.5347 8.95662ZM18.2726 14.3888H29.2722V8.95662C29.2722 6.63039 27.3952 4.74023 25.1113 4.74023H22.4335C20.189 4.74023 18.2726 6.63039 18.2726 8.95662V14.3888ZM22.4335 7.13256H25.1113C26.1088 7.13256 26.8833 7.95203 26.8833 8.95662V12.0098H20.6615V8.95662C20.6615 7.95203 21.4622 7.13256 22.4335 7.13256ZM20.6615 17.1248H26.8833V21.6319H29.2722V14.6928H18.2726V21.6319H20.6615V17.1248Z" fill="black"/>
<path d="M41.3832 2.25549H34.1639V21.6319H41.3307C46.6337 21.6319 50.9915 17.2834 50.9915 11.904C50.9915 6.60394 46.6598 2.25549 41.3832 2.25549ZM41.3832 19.3321H36.5265V4.55526H41.3307C45.3866 4.55526 48.6813 7.87278 48.6813 11.904C48.6813 15.9881 45.4129 19.3321 41.3832 19.3321ZM41.3307 4.85927H36.776V19.0281H41.3307C45.216 19.0281 48.3794 15.8428 48.3794 11.904C48.3794 8.03143 45.216 4.85927 41.3307 4.85927ZM41.3832 16.7415H39.073V7.14587H41.3832C43.9822 7.14587 46.0692 9.35307 46.0692 11.904C46.0692 14.5739 43.9822 16.7415 41.3832 16.7415Z" fill="black"/>
<path d="M67.0009 8.95662V21.6319H69.3898V8.95662C69.3898 5.18973 66.2921 2.12329 62.5774 2.12329H59.8997C56.1851 2.12329 53.1135 5.18973 53.1135 8.95662V21.6319H55.4762V8.95662C55.4762 6.47174 57.4845 4.48915 59.8997 4.48915H62.5774C65.0189 4.48915 67.0009 6.47174 67.0009 8.95662ZM55.7388 14.3888H66.7383V8.95662C66.7383 6.63039 64.8613 4.74023 62.5774 4.74023H59.8997C57.6552 4.74023 55.7388 6.63039 55.7388 8.95662V14.3888ZM59.8997 7.13256H62.5774C63.575 7.13256 64.3494 7.95203 64.3494 8.95662V12.0098H58.1277V8.95662C58.1277 7.95203 58.9283 7.13256 59.8997 7.13256ZM58.1277 17.1248H64.3494V21.6319H66.7383V14.6928H55.7388V21.6319H58.1277V17.1248Z" fill="black"/>
<path d="M77.5368 4.38347H79.8732C81.934 4.38347 84.0079 5.44086 84.2836 7.55563L86.4494 7.17223C85.9375 4.18518 83.0498 2.16296 80.057 2.16296H77.458C69.5168 2.16296 69.2674 14.3757 78.1931 14.3757H80.6346C82.1047 14.3757 82.1309 16.9398 80.6346 16.9398H77.9699C77.3136 16.8869 76.7492 16.4243 76.5524 15.8295L74.2422 16.2657C74.5441 18.2616 76.4474 19.2396 78.3507 19.2792L80.6609 19.3057C82.8398 19.3057 84.0605 17.6536 84.0605 15.5784C84.0605 13.8206 82.7872 12.1552 80.2539 12.1552L77.8386 12.1287C72.667 12.1024 72.6146 4.31737 77.5368 4.38347ZM80.6609 19.57L78.3768 19.5436C76.3161 19.5436 74.2422 18.473 73.9666 16.3451L71.7482 16.7284C72.3126 19.7154 75.2004 21.7376 78.1931 21.7376H80.1227C84.4411 21.7376 86.6725 18.6448 86.6463 15.5784C86.5937 12.5384 84.3623 9.52492 80.057 9.52492H77.6156C76.1192 9.52492 76.1192 6.97408 77.6156 6.97408H80.2801C80.9365 7.00041 81.5008 7.47624 81.6977 8.0711L83.9816 7.63489C83.706 5.63914 81.8027 4.62138 79.8995 4.62138H77.5106C72.9689 4.59492 73.0478 11.8247 77.7993 11.8776H80.2539C83.0235 11.8776 84.3098 13.7148 84.3098 15.5784C84.3098 17.7064 83.2991 19.57 80.6609 19.57Z" fill="black"/>
<path d="M23.1859 27.0621H15.9666V46.4385H23.1335C28.4364 46.4385 32.7942 42.0901 32.7942 36.7107C32.7942 31.4106 28.4625 27.0621 23.1859 27.0621ZM23.1859 44.1387H18.3293V29.3619H23.1335C27.1894 29.3619 30.484 32.6794 30.484 36.7107C30.484 40.7948 27.2157 44.1387 23.1859 44.1387ZM23.1335 29.6659H18.5787V43.8347H23.1335C27.0187 43.8347 30.1821 40.6494 30.1821 36.7107C30.1821 32.8381 27.0187 29.6659 23.1335 29.6659ZM23.1859 41.5481H20.8757V31.9525H23.1859C25.7849 31.9525 27.8719 34.1597 27.8719 36.7107C27.8719 39.3806 25.7849 41.5481 23.1859 41.5481Z" fill="black"/>
<path d="M35.0212 33.816V39.7373C35.0212 43.3853 38.0403 46.4516 41.6894 46.4516H48.4754V44.1386H41.6894C39.3398 44.1386 37.3446 42.1692 37.3446 39.7637V33.7367C37.3446 31.3312 39.3398 29.3618 41.6894 29.3618H48.4754V27.0752H41.6894C38.0403 27.0752 35.0212 30.1152 35.0212 33.816ZM39.9305 33.7367V34.2653H48.4754V36.6049H37.6203V33.7367C37.6203 31.503 39.4973 29.6393 41.6894 29.6393H48.4754V31.9656H41.6894C40.7311 31.9656 39.9305 32.7719 39.9305 33.7367ZM37.6203 36.8824H48.4754V39.2351H39.9305V39.7637C39.9305 40.7286 40.7311 41.5349 41.6894 41.5349H48.4754V43.8611H41.6894C39.4973 43.8611 37.6203 41.9974 37.6203 39.7637V36.8824Z" fill="black"/>
<path d="M59.2083 39.3542H53.3147V46.4386H55.6511V41.7069H59.182C62.8968 41.7069 65.9156 38.6669 65.9156 34.9265V33.7897C65.9156 30.0889 62.8968 27.0226 59.182 27.0226H57.4363C53.7741 27.0226 50.7026 30.0361 50.7026 33.7104V46.4386H53.0128V33.7369C53.0128 31.3049 55.0211 29.3355 57.41 29.3355H59.2083C61.5972 29.3355 63.6054 31.3049 63.6054 33.7897V34.9265C63.6054 37.3584 61.5972 39.3542 59.2083 39.3542ZM53.3147 33.7897V39.0502H59.2083C61.466 39.0502 63.3298 37.1998 63.3298 34.9265V33.7897C63.3298 31.5032 61.466 29.6131 59.2083 29.6131H57.41C55.0474 29.6131 53.3147 31.556 53.3147 33.7897ZM60.9672 33.7897V34.9265C60.9672 35.9045 60.1664 36.7239 59.2083 36.7239H55.6511V33.7897C55.6511 32.7721 56.4387 31.9658 57.41 31.9658H59.2083C60.1664 31.9658 60.9672 32.7721 60.9672 33.7897Z" fill="black"/>
<path d="M77.5935 26.7979C72.1724 26.7979 67.749 31.252 67.749 36.7636C67.749 42.2223 72.1724 46.6765 77.5935 46.6765C83.0934 46.6765 87.4905 42.2223 87.4905 36.7636C87.4905 31.252 83.0934 26.7979 77.5935 26.7979ZM77.5935 44.2842C73.472 44.2842 70.1511 40.9139 70.1511 36.7636C70.1511 32.5605 73.472 29.1902 77.5935 29.1902C81.7939 29.1902 85.1147 32.5605 85.1147 36.7636C85.1147 40.9139 81.7939 44.2842 77.5935 44.2842ZM77.5935 29.4677C73.6426 29.4677 70.4267 32.706 70.4267 36.7636C70.4267 40.7421 73.6426 43.967 77.5935 43.967C81.6233 43.967 84.8391 40.7421 84.8391 36.7636C84.8391 32.706 81.6233 29.4677 77.5935 29.4677ZM77.5935 41.5747C74.9814 41.5747 72.8156 39.3938 72.8156 36.7636C72.8156 34.0805 74.9814 31.8997 77.5935 31.8997C80.3237 31.8997 82.4502 34.0805 82.4502 36.7636C82.4502 39.3938 80.3237 41.5747 77.5935 41.5747Z" fill="black"/>
<path d="M89.1664 29.3353H103.474V27.0752H89.1664V29.3353ZM89.1664 31.9128H93.8917V46.4252H96.1887V29.6129H89.1664V31.9128ZM96.4906 46.4252H98.7484V31.9128H103.474V29.6129H96.4382C96.4382 35.2302 96.4906 40.8343 96.4906 46.4252Z" fill="black"/>
<path d="M0.285492 53.2304V54.4906C0.285492 55.267 0.928017 55.9196 1.70459 55.9196H3.14879V55.4274H1.70459C1.20457 55.4274 0.779966 55.0082 0.779966 54.4962V53.2136C0.779966 52.7017 1.20457 52.2825 1.70459 52.2825H3.14879V51.7959H1.70459C0.928017 51.7959 0.285492 52.4429 0.285492 53.2304ZM1.33031 53.2136V53.3261H3.14879V53.824H0.838605V53.2136C0.838605 52.7383 1.23812 52.3415 1.70459 52.3415H3.14879V52.8367H1.70459C1.50068 52.8367 1.33031 53.0082 1.33031 53.2136ZM0.838605 53.883H3.14879V54.3837H1.33031V54.4962C1.33031 54.7017 1.50068 54.8732 1.70459 54.8732H3.14879V55.3682H1.70459C1.23812 55.3682 0.838605 54.9717 0.838605 54.4962V53.883Z" fill="black"/>
<path d="M7.35811 55.9169H7.91968L7.43353 55.0702C7.67667 54.7271 7.81627 54.3164 7.81627 53.8606C7.81627 52.699 6.88041 51.765 5.72677 51.765C4.573 51.765 3.63715 52.699 3.63715 53.8606C3.63715 55.028 4.573 55.9648 5.72677 55.9648C6.0592 55.9648 6.36362 55.8887 6.6514 55.7509L6.73804 55.9169H7.28825C7.11788 55.6271 6.95583 55.3403 6.791 55.0533C6.50612 55.3037 6.13738 55.4641 5.72677 55.4641C4.85233 55.4641 4.14007 54.7523 4.14007 53.8606C4.14007 52.9831 4.85233 52.2629 5.72677 52.2629C6.59831 52.2629 7.31902 52.9831 7.31902 53.8606C7.31902 54.3164 7.1291 54.7215 6.83023 55.0027C7.0146 55.315 7.1822 55.616 7.35811 55.9169ZM5.72677 52.322C4.87756 52.322 4.19871 53.0168 4.19871 53.8606C4.19871 54.7158 4.87756 55.3993 5.72677 55.3993C6.57044 55.3993 7.25483 54.7158 7.25483 53.8606C7.25483 53.0168 6.57044 52.322 5.72677 52.322ZM5.72677 54.8986C5.15966 54.8986 4.70151 54.4317 4.70151 53.8606C4.70151 53.2953 5.15966 52.8312 5.72677 52.8312C6.29389 52.8312 6.75481 53.2953 6.75481 53.8606C6.75481 54.4317 6.29389 54.8986 5.72677 54.8986Z" fill="black"/>
<path d="M11.1444 54.9099C10.9879 55.2671 10.5856 55.4331 10.203 55.4331H9.6973C9.10786 55.4331 8.72512 55.0983 8.72512 54.5076C8.72512 53.6046 8.71958 52.7018 8.71958 51.7875H8.23633V54.5076C8.23633 55.3093 8.85363 55.9141 9.64988 55.9141H10.2504C10.5688 55.9141 10.8538 55.8128 11.0941 55.6497C11.2561 55.7903 11.4544 55.8887 11.6695 55.9479V55.4444C11.4182 55.3571 11.203 55.1799 11.1444 54.9099ZM11.1164 54.6764L11.1219 51.7875H10.6164V54.5076C10.6164 54.6877 10.4766 54.8451 10.284 54.8592H9.60234C9.42351 54.8451 9.27824 54.6989 9.27824 54.5076V51.7875H8.78389C8.78389 52.6961 8.77822 53.6046 8.78389 54.5076C8.78389 55.0505 9.14418 55.3683 9.6862 55.3683H10.2141C10.6387 55.3683 11.1164 55.1321 11.1164 54.6764ZM11.6695 51.7875H11.1863C11.1807 52.7495 11.1695 53.7088 11.1695 54.6708C11.1807 55.0167 11.3539 55.2558 11.6695 55.374C11.6695 54.1785 11.664 52.9886 11.6695 51.7875Z" fill="black"/>
<path d="M12.2579 55.9169H12.769V51.7875H12.2579V55.9169ZM12.8278 55.9169H13.3334V51.7875H12.8278V55.9169Z" fill="black"/>
<path d="M15.7118 54.4091H14.4576V55.9168H14.9548V54.9098H15.7063C16.4969 54.9098 17.1394 54.2628 17.1394 53.4667V53.2248C17.1394 52.4371 16.4969 51.7845 15.7063 51.7845H15.3348C14.5554 51.7845 13.9017 52.4259 13.9017 53.2079V55.9168H14.3934V53.2135C14.3934 52.6959 14.8208 52.2769 15.3292 52.2769H15.7118C16.2203 52.2769 16.6477 52.6959 16.6477 53.2248V53.4667C16.6477 53.9843 16.2203 54.4091 15.7118 54.4091ZM14.4576 53.2248V54.3443H15.7118C16.1924 54.3443 16.5891 53.9505 16.5891 53.4667V53.2248C16.5891 52.7382 16.1924 52.3359 15.7118 52.3359H15.3292C14.8263 52.3359 14.4576 52.7494 14.4576 53.2248ZM16.0863 53.2248V53.4667C16.0863 53.6748 15.9159 53.8493 15.7118 53.8493H14.9548V53.2248C14.9548 53.0082 15.1224 52.8366 15.3292 52.8366H15.7118C15.9159 52.8366 16.0863 53.0082 16.0863 53.2248Z" fill="black"/>
<path d="M17.5605 52.5638V55.9168H18.0688L18.0716 52.6032C18.0716 52.3247 18.3007 52.2263 18.4515 52.457L19.4796 54.0575C19.5522 54.1673 19.6053 54.1532 19.6723 54.0462L20.6975 52.457C20.8484 52.2263 21.0746 52.3247 21.0746 52.6032V55.9168H21.5886L21.5858 52.5638C21.5858 51.5793 20.5998 51.5737 20.3092 52.0716L19.5718 53.3374L18.8371 52.0716C18.5493 51.5737 17.5632 51.5793 17.5605 52.5638ZM20.5047 55.9168H21.0132L21.0104 52.6032C21.0104 52.3585 20.84 52.3388 20.7422 52.4936L19.7226 54.0856C19.6332 54.2347 19.5187 54.2347 19.4265 54.0884L18.4069 52.4936C18.3063 52.3388 18.1331 52.3585 18.1331 52.6032V55.9168H18.6442L18.5913 53.7143L19.1248 54.5582C19.3734 54.9548 19.7477 54.952 20.0131 54.5694L20.5718 53.6384L20.5047 55.9168Z" fill="black"/>
<path d="M22.1317 53.2304V54.4906C22.1317 55.267 22.7742 55.9196 23.5508 55.9196H24.995V55.4274H23.5508C23.0508 55.4274 22.6262 55.0082 22.6262 54.4962V53.2136C22.6262 52.7017 23.0508 52.2825 23.5508 52.2825H24.995V51.7959H23.5508C22.7742 51.7959 22.1317 52.4429 22.1317 53.2304ZM23.1765 53.2136V53.3261H24.995V53.824H22.6848V53.2136C22.6848 52.7383 23.0843 52.3415 23.5508 52.3415H24.995V52.8367H23.5508C23.3469 52.8367 23.1765 53.0082 23.1765 53.2136ZM22.6848 53.883H24.995V54.3837H23.1765V54.4962C23.1765 54.7017 23.3469 54.8732 23.5508 54.8732H24.995V55.3682H23.5508C23.0843 55.3682 22.6848 54.9717 22.6848 54.4962V53.883Z" fill="black"/>
<path d="M25.4861 52.575L25.4833 55.9139H25.9946V52.6144C25.9946 52.3387 26.2293 52.2318 26.3718 52.4709L28.0311 55.1994C28.1819 55.3654 28.3942 55.3007 28.3942 55.0813V51.7845H27.8858L27.9277 54.1699L26.7572 52.0856C26.4751 51.582 25.4861 51.5933 25.4861 52.575ZM26.056 55.9139H26.5645L26.5449 53.7649L27.6148 55.6299C27.9948 56.288 28.9641 56.0151 28.9668 55.2304V51.7845H28.4557V55.0813C28.4557 55.3598 28.1707 55.4442 27.9836 55.2445L26.3242 52.5075C26.232 52.35 26.0589 52.3669 26.0589 52.6144L26.056 55.9139Z" fill="black"/>
<path d="M29.3792 52.2769H32.4241V51.7959H29.3792V52.2769ZM29.3792 52.8254H30.3848V55.914H30.8738V52.336H29.3792V52.8254ZM30.9379 55.914H31.4184V52.8254H32.4241V52.336H30.9268C30.9268 53.5314 30.9379 54.7242 30.9379 55.914Z" fill="black"/>
<path d="M35.5872 52.7944C35.0062 52.7944 34.5453 53.2669 34.5453 53.838C34.5453 54.4202 35.0062 54.8873 35.5872 54.8873C36.1543 54.8873 36.6208 54.4202 36.6208 53.838C36.6208 53.2669 36.1543 52.7944 35.5872 52.7944ZM35.5872 53.4385C35.8079 53.4385 35.9783 53.613 35.9783 53.838C35.9783 54.063 35.8079 54.2431 35.5872 54.2431C35.3637 54.2431 35.1821 54.063 35.1821 53.838C35.1821 53.613 35.3637 53.4385 35.5872 53.4385ZM35.5872 53.4977C35.7743 53.4977 35.9252 53.6495 35.9252 53.838C35.9252 54.0264 35.7743 54.184 35.5872 54.184C35.4001 54.184 35.2408 54.0264 35.2408 53.838C35.2408 53.6495 35.4001 53.4977 35.5872 53.4977Z" fill="black"/>
<path d="M40.0696 52.2459H40.5668C41.0055 52.2459 41.4468 52.471 41.5055 52.9211L41.9664 52.8395C41.8574 52.2038 41.2429 51.7734 40.6061 51.7734H40.053C38.3628 51.7734 38.3098 54.3726 40.2093 54.3726H40.7289C41.0418 54.3726 41.0474 54.9182 40.7289 54.9182H40.1618C40.0222 54.907 39.902 54.8085 39.8601 54.6819L39.3684 54.7747C39.4327 55.1995 39.8378 55.4077 40.2429 55.4161L40.7346 55.4217C41.1983 55.4217 41.4581 55.0701 41.4581 54.6286C41.4581 54.2543 41.187 53.8999 40.6479 53.8999L40.1339 53.8943C39.0332 53.8887 39.0221 52.2318 40.0696 52.2459ZM40.7346 55.478L40.2484 55.4724C39.8098 55.4724 39.3684 55.2446 39.3098 54.7916L38.8378 54.8733C38.9578 55.5089 39.5723 55.9393 40.2093 55.9393H40.6199C41.539 55.9393 42.0139 55.2811 42.0084 54.6286C41.9972 53.9816 41.5222 53.3402 40.6061 53.3402H40.0864C39.7679 53.3402 39.7679 52.7973 40.0864 52.7973H40.6535C40.7932 52.8029 40.9133 52.9042 40.9553 53.0307L41.4413 52.9379C41.3826 52.5133 40.9776 52.2966 40.5725 52.2966H40.064C39.0976 52.291 39.1143 53.8297 40.1255 53.8409H40.6479C41.2374 53.8409 41.5112 54.2319 41.5112 54.6286C41.5112 55.0814 41.296 55.478 40.7346 55.478Z" fill="black"/>
<path d="M45.3626 54.9099C45.2061 55.2671 44.8038 55.4331 44.4212 55.4331H43.9155C43.3261 55.4331 42.9434 55.0983 42.9434 54.5076C42.9434 53.6046 42.9378 52.7018 42.9378 51.7875H42.4546V54.5076C42.4546 55.3093 43.0719 55.9141 43.8681 55.9141H44.4686C44.7871 55.9141 45.0721 55.8128 45.3123 55.6497C45.4744 55.7903 45.6726 55.8887 45.8877 55.9479V55.4444C45.6364 55.3571 45.4213 55.1799 45.3626 54.9099ZM45.3346 54.6764L45.3402 51.7875H44.8346V54.5076C44.8346 54.6877 44.6949 54.8451 44.5022 54.8592H43.8206C43.6417 54.8451 43.4965 54.6989 43.4965 54.5076V51.7875H43.0021C43.0021 52.6961 42.9964 53.6046 43.0021 54.5076C43.0021 55.0505 43.3624 55.3683 43.9044 55.3683H44.4323C44.8569 55.3683 45.3346 55.1321 45.3346 54.6764ZM45.8877 51.7875H45.4045C45.3989 52.7495 45.3877 53.7088 45.3877 54.6708C45.3989 55.0167 45.5721 55.2558 45.8877 55.374C45.8877 54.1785 45.8822 52.9886 45.8877 51.7875Z" fill="black"/>
<path d="M48.2247 54.4091H46.9705V55.9168H47.4677V54.9098H48.2192C49.0098 54.9098 49.6523 54.2628 49.6523 53.4667V53.2248C49.6523 52.4371 49.0098 51.7845 48.2192 51.7845H47.8477C47.0683 51.7845 46.4146 52.4259 46.4146 53.2079V55.9168H46.9063V53.2135C46.9063 52.6959 47.3337 52.2769 47.8421 52.2769H48.2247C48.7332 52.2769 49.1606 52.6959 49.1606 53.2248V53.4667C49.1606 53.9843 48.7332 54.4091 48.2247 54.4091ZM46.9705 53.2248V54.3443H48.2247C48.7054 54.3443 49.102 53.9505 49.102 53.4667V53.2248C49.102 52.7382 48.7054 52.3359 48.2247 52.3359H47.8421C47.3392 52.3359 46.9705 52.7494 46.9705 53.2248ZM48.5992 53.2248V53.4667C48.5992 53.6748 48.4288 53.8493 48.2247 53.8493H47.4677V53.2248C47.4677 53.0082 47.6353 52.8366 47.8421 52.8366H48.2247C48.4288 52.8366 48.5992 53.0082 48.5992 53.2248Z" fill="black"/>
<path d="M51.8946 54.4091H50.6403V55.9168H51.1376V54.9098H51.8891C52.6796 54.9098 53.3222 54.2628 53.3222 53.4667V53.2248C53.3222 52.4371 52.6796 51.7845 51.8891 51.7845H51.5175C50.7382 51.7845 50.0844 52.4259 50.0844 53.2079V55.9168H50.5761V53.2135C50.5761 52.6959 51.0035 52.2769 51.512 52.2769H51.8946C52.4031 52.2769 52.8305 52.6959 52.8305 53.2248V53.4667C52.8305 53.9843 52.4031 54.4091 51.8946 54.4091ZM50.6403 53.2248V54.3443H51.8946C52.3752 54.3443 52.7718 53.9505 52.7718 53.4667V53.2248C52.7718 52.7382 52.3752 52.3359 51.8946 52.3359H51.512C51.0091 52.3359 50.6403 52.7494 50.6403 53.2248ZM52.269 53.2248V53.4667C52.269 53.6748 52.0987 53.8493 51.8946 53.8493H51.1376V53.2248C51.1376 53.0082 51.3052 52.8366 51.512 52.8366H51.8946C52.0987 52.8366 52.269 53.0082 52.269 53.2248Z" fill="black"/>
<path d="M54.8354 54.5638V52.9661C54.8354 52.3191 54.4136 51.7707 53.7628 51.7538V52.2994C54.1538 52.2994 54.3326 52.5835 54.3326 52.9717C54.3382 53.4837 54.3326 54.0631 54.3326 54.5807C54.3326 55.0955 54.8187 55.3543 55.2684 55.3543H56.0674V54.8367H55.1343C54.975 54.8367 54.8354 54.7214 54.8354 54.5638ZM53.7683 54.5807L53.7628 52.367C54.1287 52.367 54.2711 52.6455 54.2711 52.983V54.5863C54.2656 55.149 54.7823 55.4217 55.2796 55.4217H56.0674V55.9168H55.232C54.5086 55.9168 53.7683 55.3543 53.7683 54.5807Z" fill="black"/>
<path d="M56.5928 55.9169H57.1039V51.7875H56.5928V55.9169ZM57.1627 55.9169H57.6682V51.7875H57.1627V55.9169Z" fill="black"/>
<path d="M58.2701 53.2304V54.4906C58.2701 55.267 58.9126 55.9196 59.6892 55.9196H61.1334V55.4274H59.6892C59.1892 55.4274 58.7646 55.0082 58.7646 54.4962V53.2136C58.7646 52.7017 59.1892 52.2825 59.6892 52.2825H61.1334V51.7959H59.6892C58.9126 51.7959 58.2701 52.4429 58.2701 53.2304ZM59.3149 53.2136V53.3261H61.1334V53.824H58.8232V53.2136C58.8232 52.7383 59.2227 52.3415 59.6892 52.3415H61.1334V52.8367H59.6892C59.4853 52.8367 59.3149 53.0082 59.3149 53.2136ZM58.8232 53.883H61.1334V54.3837H59.3149V54.4962C59.3149 54.7017 59.4853 54.8732 59.6892 54.8732H61.1334V55.3682H59.6892C59.2227 55.3682 58.8232 54.9717 58.8232 54.4962V53.883Z" fill="black"/>
<path d="M62.8956 52.2459H63.3928C63.8314 52.2459 64.2728 52.471 64.3314 52.9211L64.7924 52.8395C64.6834 52.2038 64.0689 51.7734 63.432 51.7734H62.8789C61.1888 51.7734 61.1357 54.3726 63.0353 54.3726H63.5549C63.8677 54.3726 63.8734 54.9182 63.5549 54.9182H62.9877C62.8481 54.907 62.728 54.8085 62.6861 54.6819L62.1944 54.7747C62.2587 55.1995 62.6638 55.4077 63.0688 55.4161L63.5605 55.4217C64.0242 55.4217 64.284 55.0701 64.284 54.6286C64.284 54.2543 64.013 53.8999 63.4739 53.8999L62.9599 53.8943C61.8592 53.8887 61.8481 52.2318 62.8956 52.2459ZM63.5605 55.478L63.0744 55.4724C62.6358 55.4724 62.1944 55.2446 62.1357 54.7916L61.6637 54.8733C61.7838 55.5089 62.3983 55.9393 63.0353 55.9393H63.4459C64.365 55.9393 64.8399 55.2811 64.8344 54.6286C64.8231 53.9816 64.3482 53.3402 63.432 53.3402H62.9123C62.5939 53.3402 62.5939 52.7973 62.9123 52.7973H63.4794C63.6192 52.8029 63.7392 52.9042 63.7812 53.0307L64.2672 52.9379C64.2086 52.5133 63.8035 52.2966 63.3985 52.2966H62.89C61.9235 52.291 61.9403 53.8297 62.9514 53.8409H63.4739C64.0633 53.8409 64.3371 54.2319 64.3371 54.6286C64.3371 55.0814 64.122 55.478 63.5605 55.478Z" fill="black"/>
<path d="M67.9636 52.7944C67.3827 52.7944 66.9217 53.2669 66.9217 53.838C66.9217 54.4202 67.3827 54.8873 67.9636 54.8873C68.5307 54.8873 68.9972 54.4202 68.9972 53.838C68.9972 53.2669 68.5307 52.7944 67.9636 52.7944ZM67.9636 53.4385C68.1843 53.4385 68.3547 53.613 68.3547 53.838C68.3547 54.063 68.1843 54.2431 67.9636 54.2431C67.7402 54.2431 67.5586 54.063 67.5586 53.838C67.5586 53.613 67.7402 53.4385 67.9636 53.4385ZM67.9636 53.4977C68.1508 53.4977 68.3016 53.6495 68.3016 53.838C68.3016 54.0264 68.1508 54.184 67.9636 54.184C67.7765 54.184 67.6172 54.0264 67.6172 53.838C67.6172 53.6495 67.7765 53.4977 67.9636 53.4977Z" fill="black"/>
<path d="M71.2225 53.2304V54.4906C71.2225 55.267 71.865 55.9196 72.6416 55.9196H74.0858V55.4274H72.6416C72.1416 55.4274 71.717 55.0082 71.717 54.4962V53.2136C71.717 52.7017 72.1416 52.2825 72.6416 52.2825H74.0858V51.7959H72.6416C71.865 51.7959 71.2225 52.4429 71.2225 53.2304ZM72.2673 53.2136V53.3261H74.0858V53.824H71.7756V53.2136C71.7756 52.7383 72.1751 52.3415 72.6416 52.3415H74.0858V52.8367H72.6416C72.4377 52.8367 72.2673 53.0082 72.2673 53.2136ZM71.7756 53.883H74.0858V54.3837H72.2673V54.4962C72.2673 54.7017 72.4377 54.8732 72.6416 54.8732H74.0858V55.3682H72.6416C72.1751 55.3682 71.7756 54.9717 71.7756 54.4962V53.883Z" fill="black"/>
<path d="M76.1275 51.7931H74.5909V55.9168H76.1162C77.2448 55.9168 78.1723 54.9913 78.1723 53.8464C78.1723 52.7186 77.2505 51.7931 76.1275 51.7931ZM76.1275 55.4274H75.0939V52.2825H76.1162C76.9794 52.2825 77.6806 52.9885 77.6806 53.8464C77.6806 54.7156 76.985 55.4274 76.1275 55.4274ZM76.1162 52.3473H75.1468V55.3626H76.1162C76.9431 55.3626 77.6163 54.6848 77.6163 53.8464C77.6163 53.0223 76.9431 52.3473 76.1162 52.3473ZM76.1275 54.876H75.6358V52.8339H76.1275C76.6806 52.8339 77.1247 53.3036 77.1247 53.8464C77.1247 54.4147 76.6806 54.876 76.1275 54.876Z" fill="black"/>
<path d="M81.5624 54.9099C81.4059 55.2671 81.0036 55.4331 80.621 55.4331H80.1153C79.5258 55.4331 79.1431 55.0983 79.1431 54.5076C79.1431 53.6046 79.1375 52.7018 79.1375 51.7875H78.6543V54.5076C78.6543 55.3093 79.2716 55.9141 80.0679 55.9141H80.6684C80.9868 55.9141 81.2718 55.8128 81.512 55.6497C81.6741 55.7903 81.8723 55.8887 82.0875 55.9479V55.4444C81.8362 55.3571 81.621 55.1799 81.5624 54.9099ZM81.5344 54.6764L81.5399 51.7875H81.0343V54.5076C81.0343 54.6877 80.8946 54.8451 80.7019 54.8592H80.0203C79.8415 54.8451 79.6962 54.6989 79.6962 54.5076V51.7875H79.2019C79.2019 52.6961 79.1962 53.6046 79.2019 54.5076C79.2019 55.0505 79.5622 55.3683 80.1042 55.3683H80.6321C81.0567 55.3683 81.5344 55.1321 81.5344 54.6764ZM82.0875 51.7875H81.6042C81.5987 52.7495 81.5875 53.7088 81.5875 54.6708C81.5987 55.0167 81.7718 55.2558 82.0875 55.374C82.0875 54.1785 82.0819 52.9886 82.0875 51.7875Z" fill="black"/>
<path d="M84.7096 51.7677C83.553 51.7677 82.6284 52.7017 82.6284 53.8577C82.6284 55.0166 83.553 55.9478 84.7096 55.9478C85.1119 55.9478 85.4917 55.8324 85.8186 55.6242L85.5671 55.177C85.3185 55.3515 85.0197 55.4386 84.7096 55.4386C83.8408 55.4386 83.134 54.7325 83.134 53.8577C83.134 52.9829 83.8408 52.2769 84.7096 52.2769C85.0197 52.2769 85.3185 52.3642 85.5671 52.5385L85.8186 52.0857C85.4917 51.8831 85.1119 51.7677 84.7096 51.7677ZM84.7096 52.3304C83.8687 52.3304 83.187 53.0195 83.187 53.8577C83.187 54.6988 83.8687 55.3851 84.7096 55.3851C85.014 55.3851 85.3018 55.2923 85.5365 55.132L85.2962 54.6848C85.1229 54.8085 84.9275 54.876 84.7096 54.876C84.1397 54.876 83.6927 54.426 83.6927 53.8577C83.6927 53.2895 84.1397 52.8395 84.7096 52.8395C84.9275 52.8395 85.1229 52.9098 85.2962 53.0307L85.5365 52.5834C85.3018 52.4232 85.014 52.3304 84.7096 52.3304Z" fill="black"/>
<path d="M89.2453 53.2194V55.9169H89.7538V53.2194C89.7538 52.4176 89.0945 51.765 88.3039 51.765H87.7341C86.9435 51.765 86.2899 52.4176 86.2899 53.2194V55.9169H86.7927V53.2194C86.7927 52.6905 87.22 52.2685 87.7341 52.2685H88.3039C88.8235 52.2685 89.2453 52.6905 89.2453 53.2194ZM86.8485 54.3754H89.1895V53.2194C89.1895 52.7243 88.7901 52.322 88.3039 52.322H87.7341C87.2564 52.322 86.8485 52.7243 86.8485 53.2194V54.3754ZM87.7341 52.8312H88.3039C88.5163 52.8312 88.6811 53.0055 88.6811 53.2194V53.8692H87.357V53.2194C87.357 53.0055 87.5274 52.8312 87.7341 52.8312ZM87.357 54.9577H88.6811V55.9169H89.1895V54.4401H86.8485V55.9169H87.357V54.9577Z" fill="black"/>
<path d="M90.1746 52.2769H93.2195V51.7959H90.1746V52.2769ZM90.1746 52.8254H91.1801V55.914H91.6691V52.336H90.1746V52.8254ZM91.7333 55.914H92.2137V52.8254H93.2195V52.336H91.7222C91.7222 53.5314 91.7333 54.7242 91.7333 55.914Z" fill="black"/>
<path d="M93.7497 55.9169H94.2608V51.7875H93.7497V55.9169ZM94.3196 55.9169H94.8251V51.7875H94.3196V55.9169Z" fill="black"/>
<path d="M97.4774 51.7369C96.3238 51.7369 95.3824 52.6849 95.3824 53.8578C95.3824 55.0196 96.3238 55.9676 97.4774 55.9676C98.648 55.9676 99.5838 55.0196 99.5838 53.8578C99.5838 52.6849 98.648 51.7369 97.4774 51.7369ZM97.4774 55.4583C96.6003 55.4583 95.8935 54.7411 95.8935 53.8578C95.8935 52.9634 96.6003 52.246 97.4774 52.246C98.3714 52.246 99.0781 52.9634 99.0781 53.8578C99.0781 54.7411 98.3714 55.4583 97.4774 55.4583ZM97.4774 52.3051C96.6367 52.3051 95.9523 52.9942 95.9523 53.8578C95.9523 54.7046 96.6367 55.3909 97.4774 55.3909C98.3351 55.3909 99.0195 54.7046 99.0195 53.8578C99.0195 52.9942 98.3351 52.3051 97.4774 52.3051ZM97.4774 54.8817C96.9215 54.8817 96.4606 54.4176 96.4606 53.8578C96.4606 53.2868 96.9215 52.8227 97.4774 52.8227C98.0585 52.8227 98.511 53.2868 98.511 53.8578C98.511 54.4176 98.0585 54.8817 97.4774 54.8817Z" fill="black"/>
<path d="M100.043 52.575L100.04 55.9139H100.551V52.6144C100.551 52.3387 100.786 52.2318 100.928 52.4709L102.588 55.1994C102.739 55.3654 102.951 55.3007 102.951 55.0813V51.7845H102.443L102.484 54.1699L101.314 52.0856C101.032 51.582 100.043 51.5933 100.043 52.575ZM100.613 55.9139H101.121L101.102 53.7649L102.172 55.6299C102.551 56.288 103.521 56.0151 103.524 55.2304V51.7845H103.012V55.0813C103.012 55.3598 102.727 55.4442 102.54 55.2445L100.881 52.5075C100.789 52.35 100.616 52.3669 100.616 52.6144L100.613 55.9139Z" fill="black"/>
<rect x="5.92224" y="0.710083" width="5.07623" height="12.7787" fill="black"/>
<rect x="0.845978" y="0.710083" width="5.07623" height="25.4154" fill="black"/>
<rect x="0.5" y="0.5" width="10.9855" height="46.1392" stroke="black"/>
<rect x="5.92224" y="41.1759" width="2.53811" height="2.69772" fill="black"/>
<rect x="5.92224" y="36.2063" width="2.53811" height="2.55574" fill="black"/>
<rect x="3.38412" y="33.6506" width="2.53811" height="2.55574" fill="black"/>
<rect x="5.92224" y="31.0948" width="2.53811" height="2.55574" fill="black"/>
<rect x="3.38412" y="28.5392" width="2.53811" height="2.55574" fill="black"/>
<rect x="5.92224" y="25.9834" width="2.53811" height="2.55574" fill="black"/>
<rect x="5.92224" y="21.014" width="2.53811" height="2.55574" fill="black"/>
<rect x="5.92224" y="15.9026" width="2.53811" height="2.55574" fill="black"/>
<rect x="3.38412" y="21.014" width="2.53811" height="2.55574" fill="white"/>
<rect x="3.38412" y="15.9026" width="2.53811" height="2.55574" fill="white"/>
<rect x="3.38412" y="10.933" width="2.53811" height="2.55574" fill="white"/>
<rect x="5.92224" y="8.3772" width="2.53811" height="2.55574" fill="white"/>
<rect x="3.38412" y="5.9635" width="2.53811" height="2.55574" fill="white"/>
<rect x="5.92224" y="3.26562" width="2.53811" height="2.69772" fill="white"/>
<rect x="3.38412" y="0.710083" width="2.53811" height="2.55574" fill="white"/>
<rect x="0.845978" y="38.7622" width="5.07623" height="7.52523" fill="black"/>
<rect x="3.38412" y="41.1759" width="2.53811" height="2.69772" fill="white"/>
</svg>
