<svg width="42" height="43" viewBox="0 0 42 43" fill="none" xmlns="http://www.w3.org/2000/svg">
<g clip-path="url(#clip0_80_114)">
<path d="M42 7.3125C42 8.78906 40.827 10.1508 38.85 11.25C36.4629 12.5707 32.9027 13.5059 28.8176 13.7848C28.5141 13.6371 28.2105 13.4977 27.8906 13.3746C24.6586 12.0211 20.3602 11.25 15.75 11.25C15.0691 11.25 14.4047 11.2664 13.7402 11.2992L13.65 11.25C11.673 10.1508 10.5 8.78906 10.5 7.3125C10.5 3.68672 17.5547 0.75 26.25 0.75C34.9453 0.75 42 3.68672 42 7.3125ZM13.1824 13.9652C14.0191 13.9078 14.8805 13.875 15.75 13.875C20.8523 13.875 25.3805 14.884 28.2598 16.4508C30.2941 17.5582 31.5 18.9363 31.5 20.4375C31.5 20.7656 31.4426 21.0855 31.3277 21.3973C30.9504 22.4801 29.9332 23.4727 28.4566 24.3094C28.4484 24.3176 28.432 24.3176 28.4238 24.3258C28.3992 24.3422 28.3746 24.3504 28.35 24.3668C25.4789 25.9582 20.9016 26.9918 15.75 26.9918C10.8609 26.9918 6.48867 26.0648 3.59297 24.6047C3.43711 24.5309 3.28945 24.4488 3.1418 24.3668C1.17305 23.2758 0 21.9141 0 20.4375C0 17.5828 4.38047 15.1465 10.5 14.2523C11.3613 14.1293 12.2555 14.0309 13.1824 13.9652ZM34.125 20.4375C34.125 18.641 33.2555 17.1645 32.148 16.057C34.4695 15.6961 36.5941 15.1219 38.3988 14.3754C39.7359 13.8176 40.9828 13.1285 42 12.2836V15.1875C42 16.7707 40.6465 18.2309 38.407 19.3629C37.2094 19.9699 35.7492 20.4867 34.1086 20.8805C34.1168 20.7328 34.125 20.5934 34.125 20.4457V20.4375ZM31.5 28.3125C31.5 29.7891 30.327 31.1508 28.35 32.25C28.2023 32.332 28.0547 32.4059 27.8988 32.4879C25.0113 33.948 20.6391 34.875 15.75 34.875C10.5984 34.875 6.02109 33.8414 3.15 32.25C1.17305 31.1508 0 29.7891 0 28.3125V25.4086C1.02539 26.2535 2.26406 26.9426 3.60117 27.5004C6.84141 28.8539 11.1398 29.625 15.75 29.625C20.3602 29.625 24.6586 28.8539 27.8988 27.5004C28.5387 27.2379 29.1539 26.9344 29.7363 26.6063C30.2367 26.3273 30.7043 26.0156 31.1473 25.6875C31.2703 25.5973 31.3852 25.4988 31.5 25.4086V25.6875V26.1551V28.3125ZM34.125 28.3125V25.6875V23.5629C35.6836 23.2184 37.1191 22.7836 38.3988 22.2504C39.7359 21.6926 40.9828 21.0035 42 20.1586V23.0625C42 23.9238 41.5898 24.7852 40.7777 25.5973C39.4406 26.9344 37.0863 28.0336 34.1086 28.7473C34.1168 28.6078 34.125 28.4602 34.125 28.3125ZM15.75 37.5C20.3602 37.5 24.6586 36.7289 27.8988 35.3754C29.2359 34.8176 30.4828 34.1285 31.5 33.2836V36.1875C31.5 39.8133 24.4453 42.75 15.75 42.75C7.05469 42.75 0 39.8133 0 36.1875V33.2836C1.02539 34.1285 2.26406 34.8176 3.60117 35.3754C6.84141 36.7289 11.1398 37.5 15.75 37.5Z" fill="black"/>
</g>
<defs>
<clipPath id="clip0_80_114">
<rect width="42" height="42" fill="white" transform="translate(0 0.75)"/>
</clipPath>
</defs>
</svg>
