<svg width="42" height="43" viewBox="0 0 42 43" fill="none" xmlns="http://www.w3.org/2000/svg">
<g clip-path="url(#clip0_80_117)">
<path d="M21 4.6875C11.5746 4.6875 3.9375 12.3246 3.9375 21.75V25.0312C3.9375 26.1223 3.05977 27 1.96875 27C0.877734 27 0 26.1223 0 25.0312V21.75C0 10.1508 9.40078 0.75 21 0.75C32.5992 0.75 42 10.1508 42 21.75V33.5707C42 37.5574 38.768 40.7895 34.773 40.7895L25.725 40.7812C25.0441 41.9543 23.7727 42.75 22.3125 42.75H19.6875C17.5137 42.75 15.75 40.9863 15.75 38.8125C15.75 36.6387 17.5137 34.875 19.6875 34.875H22.3125C23.7727 34.875 25.0441 35.6707 25.725 36.8438L34.7812 36.852C36.5941 36.852 38.0625 35.3836 38.0625 33.5707V21.75C38.0625 12.3246 30.4254 4.6875 21 4.6875ZM11.8125 17.8125H13.125C14.577 17.8125 15.75 18.9855 15.75 20.4375V29.625C15.75 31.077 14.577 32.25 13.125 32.25H11.8125C8.9168 32.25 6.5625 29.8957 6.5625 27V23.0625C6.5625 20.1668 8.9168 17.8125 11.8125 17.8125ZM30.1875 17.8125C33.0832 17.8125 35.4375 20.1668 35.4375 23.0625V27C35.4375 29.8957 33.0832 32.25 30.1875 32.25H28.875C27.423 32.25 26.25 31.077 26.25 29.625V20.4375C26.25 18.9855 27.423 17.8125 28.875 17.8125H30.1875Z" fill="white"/>
</g>
<defs>
<clipPath id="clip0_80_117">
<rect width="42" height="42" fill="white" transform="translate(0 0.75)"/>
</clipPath>
</defs>
</svg>
