<svg width="42" height="43" viewBox="0 0 42 43" fill="none" xmlns="http://www.w3.org/2000/svg">
<g clip-path="url(#clip0_80_109)">
<path d="M31.4613 23.8451C31.4613 21.7669 30.4657 19.981 28.6627 19.981C26.8934 19.981 25.864 21.664 25.864 23.9135C25.864 26.1798 26.928 27.7769 28.6796 27.7769C30.4488 27.7769 31.4613 26.0945 31.4613 23.8451Z" fill="black"/>
<path d="M37.2438 15.2734H36.2353V10.4065C36.2353 10.3762 36.2304 10.3456 36.2264 10.3148C36.2248 10.1217 36.1633 9.93187 36.031 9.78142L27.9333 0.531677C27.9308 0.529313 27.9284 0.528474 27.9268 0.526034C27.8785 0.471971 27.8222 0.427135 27.7627 0.388551C27.7451 0.376503 27.7274 0.36659 27.7089 0.356372C27.6574 0.328235 27.6027 0.304902 27.5464 0.28805C27.5312 0.28378 27.5174 0.277756 27.5022 0.273562C27.441 0.259074 27.3775 0.25 27.3132 0.25H7.41177C6.50299 0.25 5.76472 0.989269 5.76472 1.89713V15.273H4.75628C3.45686 15.273 2.40228 16.3267 2.40228 17.627V29.8689C2.40228 31.1685 3.45686 32.2229 4.75628 32.2229H5.76479V40.6029C5.76479 41.5108 6.50307 42.25 7.41185 42.25H34.5883C35.4962 42.25 36.2353 41.5109 36.2353 40.6029V32.2233H37.2438C38.5443 32.2233 39.5978 31.1685 39.5978 29.8689V17.6274C39.5978 16.3267 38.5442 15.2734 37.2438 15.2734ZM34.5883 40.1566H7.41177V32.2233H34.5882V40.1566H34.5883ZM9.4632 29.6654V18.0926H12.0898V29.6654H9.4632ZM17.2419 24.8063C15.319 24.1372 14.0652 23.0724 14.0652 21.3899C14.0652 19.4149 15.7138 17.9035 18.4442 17.9035C19.7495 17.9035 20.7105 18.1778 21.3973 18.4866L20.8135 20.6003C20.3502 20.376 19.5267 20.0502 18.3928 20.0502C17.2588 20.0502 16.7095 20.5649 16.7095 21.1665C16.7095 21.9045 17.3617 22.2303 18.8559 22.798C20.8995 23.5532 21.8605 24.6172 21.8605 26.249C21.8605 28.1896 20.3671 29.8387 17.1903 29.8387C15.8682 29.8387 14.5629 29.494 13.9107 29.1337L14.4431 26.9696C15.1476 27.3315 16.2293 27.6918 17.3456 27.6918C18.5471 27.6918 19.1824 27.1932 19.1824 26.438C19.1824 25.7167 18.6332 25.3049 17.2419 24.8063ZM23.0982 23.9651C23.0982 20.4974 25.3139 17.9036 28.731 17.9036C32.2853 17.9036 34.2259 20.565 34.2259 23.7592C34.2259 27.5544 31.9251 29.8556 28.542 29.8556C25.1079 29.8556 23.0982 27.2616 23.0982 23.9651ZM34.5883 15.2734H7.41177V1.89713H26.4896V10.324C26.4896 10.779 26.8588 11.1476 27.3132 11.1476H34.5882V15.2734H34.5883Z" fill="black"/>
</g>
<defs>
<clipPath id="clip0_80_109">
<rect width="42" height="42" fill="white" transform="translate(0 0.25)"/>
</clipPath>
</defs>
</svg>
