<svg width="42" height="43" viewBox="0 0 42 43" fill="none" xmlns="http://www.w3.org/2000/svg">
<g clip-path="url(#clip0_80_106)">
<path d="M21 0.25C21.3773 0.25 21.7547 0.332031 22.0992 0.487891L37.5457 7.04219C39.3504 7.80508 40.6957 9.58516 40.6875 11.7344C40.6465 19.8719 37.2996 34.7605 23.1656 41.5281C21.7957 42.1844 20.2043 42.1844 18.8344 41.5281C4.7004 34.7605 1.35352 19.8719 1.31251 11.7344C1.3043 9.58516 2.64962 7.80508 4.4543 7.04219L19.909 0.487891C20.2453 0.332031 20.6227 0.25 21 0.25ZM21 5.72969V36.7457C32.3203 31.2578 35.3637 19.1254 35.4375 11.8492L21 5.72969Z" fill="white"/>
</g>
<defs>
<clipPath id="clip0_80_106">
<rect width="42" height="42" fill="white" transform="translate(0 0.25)"/>
</clipPath>
</defs>
</svg>
