<svg width="56" height="46" viewBox="0 0 56 46" fill="none" xmlns="http://www.w3.org/2000/svg">
<g clip-path="url(#clip0_72_2460)">
<path d="M26.9938 12.3916C27.615 11.8379 27.86 10.9678 27.5363 10.1943C27.335 9.72852 27.1163 9.27148 26.8713 8.83203L26.6 8.35742C26.3375 7.91797 26.0488 7.48731 25.7425 7.07422C25.2438 6.40625 24.3688 6.18652 23.5813 6.45019L21.1138 7.26758C20.1775 6.49414 19.1013 5.86133 17.9463 5.43066L17.4125 2.88184C17.2463 2.06445 16.6163 1.41406 15.7938 1.31738C15.2163 1.23828 14.63 1.20312 14.035 1.20312H13.9738C13.3787 1.20312 12.7925 1.23828 12.215 1.30859C11.3925 1.40527 10.7625 2.06445 10.5963 2.87305L10.0625 5.43066C8.89875 5.87012 7.83125 6.49414 6.895 7.26758L4.41875 6.45898C3.63125 6.19531 2.75625 6.41504 2.2575 7.08301C1.95125 7.49609 1.6625 7.92676 1.39125 8.36621L1.12875 8.83203C0.88375 9.27148 0.665 9.72852 0.46375 10.2031C0.14 10.9678 0.385 11.8379 1.00625 12.4004L2.94875 14.1406C2.8525 14.7295 2.8 15.3447 2.8 15.9688C2.8 16.5928 2.8525 17.208 2.94875 17.8057L1.00625 19.5459C0.385 20.0996 0.14 20.9697 0.46375 21.7432C0.665 22.209 0.88375 22.666 1.12875 23.1143L1.39125 23.5713C1.65375 24.0195 1.9425 24.4414 2.2575 24.8545C2.75625 25.5225 3.63125 25.7422 4.41875 25.4785L6.88625 24.6611C7.8225 25.4346 8.89875 26.0674 10.0538 26.498L10.5875 29.0557C10.7538 29.873 11.3837 30.5234 12.2063 30.6201C12.7925 30.6904 13.3875 30.7256 13.9913 30.7256C14.595 30.7256 15.19 30.6904 15.7763 30.6201C16.5988 30.5234 17.2288 29.8643 17.395 29.0557L17.9288 26.498C19.0925 26.0586 20.16 25.4346 21.0963 24.6611L23.5638 25.4785C24.3513 25.7422 25.2263 25.5225 25.725 24.8545C26.0313 24.4414 26.32 24.0195 26.5825 23.5713L26.8538 23.0967C27.0988 22.6572 27.3175 22.2002 27.5188 21.7344C27.8425 20.9697 27.5975 20.0996 26.9763 19.5371L25.0338 17.7969C25.13 17.1992 25.1825 16.584 25.1825 15.96C25.1825 15.3359 25.13 14.7207 25.0338 14.123L26.9763 12.3828L26.9938 12.3916ZM9.8 15.9688C9.8 14.8499 10.2425 13.7768 11.0302 12.9856C11.8178 12.1945 12.8861 11.75 14 11.75C15.1139 11.75 16.1822 12.1945 16.9698 12.9856C17.7575 13.7768 18.2 14.8499 18.2 15.9688C18.2 17.0876 17.7575 18.1607 16.9698 18.9519C16.1822 19.743 15.1139 20.1875 14 20.1875C12.8861 20.1875 11.8178 19.743 11.0302 18.9519C10.2425 18.1607 9.8 17.0876 9.8 15.9688ZM44.1613 44.4893C44.7125 45.1133 45.5788 45.3594 46.3488 45.0342C46.8125 44.832 47.2675 44.6123 47.705 44.3662L48.1775 44.0938C48.615 43.8301 49.0438 43.54 49.455 43.2324C50.12 42.7314 50.3388 41.8525 50.0763 41.0615L49.2625 38.583C50.0325 37.6426 50.6625 36.5615 51.0913 35.4014L53.6375 34.8652C54.4513 34.6982 55.0988 34.0654 55.195 33.2393C55.265 32.6504 55.3 32.0527 55.3 31.4463C55.3 30.8398 55.265 30.2422 55.195 29.6533C55.0988 28.8272 54.4425 28.1943 53.6375 28.0273L51.0913 27.4824C50.6538 26.3135 50.0325 25.2412 49.2625 24.3008L50.0763 21.8223C50.3388 21.0312 50.12 20.1523 49.455 19.6514C49.0438 19.3438 48.615 19.0537 48.1775 18.7812L47.7138 18.5176C47.2763 18.2715 46.8213 18.0518 46.3488 17.8496C45.5875 17.5244 44.7213 17.7705 44.1613 18.3945L42.4288 20.3457C41.8338 20.249 41.2213 20.1963 40.6 20.1963C39.9788 20.1963 39.3663 20.249 38.7713 20.3457L37.0388 18.3945C36.4875 17.7705 35.6213 17.5244 34.8513 17.8496C34.3875 18.0518 33.9325 18.2715 33.4863 18.5176L33.0313 18.7812C32.585 19.0449 32.165 19.335 31.7538 19.6514C31.0888 20.1523 30.87 21.0312 31.1325 21.8223L31.9463 24.3008C31.1763 25.2412 30.5463 26.3223 30.1175 27.4824L27.5713 28.0098C26.7575 28.1768 26.11 28.8096 26.0138 29.6357C25.9438 30.2246 25.9088 30.8223 25.9088 31.4287C25.9088 32.0352 25.9438 32.6328 26.0138 33.2217C26.11 34.0479 26.7663 34.6807 27.5713 34.8477L30.1175 35.3838C30.555 36.5527 31.1763 37.625 31.9463 38.5654L31.1325 41.0439C30.87 41.835 31.0888 42.7139 31.7538 43.2148C32.165 43.5225 32.585 43.8125 33.0313 44.0762L33.5038 44.3486C33.9413 44.5947 34.3963 44.8145 34.86 45.0166C35.6213 45.3418 36.4875 45.0957 37.0475 44.4717L38.78 42.5205C39.375 42.6172 39.9875 42.6699 40.6088 42.6699C41.23 42.6699 41.8425 42.6172 42.4375 42.5205L44.17 44.4717L44.1613 44.4893ZM40.6 27.2188C41.1516 27.2188 41.6977 27.3279 42.2073 27.5399C42.7168 27.7519 43.1798 28.0626 43.5699 28.4544C43.9599 28.8461 44.2692 29.3112 44.4803 29.8231C44.6914 30.3349 44.8 30.8835 44.8 31.4375C44.8 31.9915 44.6914 32.5401 44.4803 33.0519C44.2692 33.5638 43.9599 34.0289 43.5699 34.4206C43.1798 34.8124 42.7168 35.1231 42.2073 35.3351C41.6977 35.5471 41.1516 35.6562 40.6 35.6562C40.0485 35.6562 39.5023 35.5471 38.9927 35.3351C38.4832 35.1231 38.0202 34.8124 37.6302 34.4206C37.2401 34.0289 36.9308 33.5638 36.7197 33.0519C36.5086 32.5401 36.4 31.9915 36.4 31.4375C36.4 30.8835 36.5086 30.3349 36.7197 29.8231C36.9308 29.3112 37.2401 28.8461 37.6302 28.4544C38.0202 28.0626 38.4832 27.7519 38.9927 27.5399C39.5023 27.3279 40.0485 27.2188 40.6 27.2188Z" fill="#B20000"/>
</g>
<defs>
<clipPath id="clip0_72_2460">
<rect width="56" height="45" fill="white" transform="translate(0 0.5)"/>
</clipPath>
</defs>
</svg>
